{
  "meta": {"bpm": 124, "bars": 16, "key": "A minor", "style": "ambient_pad"},
  "tracks": [
    {"track_index": 0, "track_name": "Kick", "notes": [
      {"pitch": 36, "start_beat": 0.0, "duration": 0.5, "velocity": 95},
      {"pitch": 36, "start_beat": 16.0, "duration": 0.5, "velocity": 92},
      {"pitch": 36, "start_beat": 32.0, "duration": 0.5, "velocity": 90},
      {"pitch": 36, "start_beat": 48.0, "duration": 0.5, "velocity": 85}
    ]},
    {"track_index": 1, "track_name": "Snare/Clap", "notes": []},
    {"track_index": 2, "track_name": "Closed Hat", "notes": []},
    {"track_index": 3, "track_name": "Open Hat", "notes": [
      {"pitch": 46, "start_beat": 14.5, "duration": 0.5, "velocity": 55},
      {"pitch": 46, "start_beat": 30.5, "duration": 0.5, "velocity": 58},
      {"pitch": 46, "start_beat": 46.5, "duration": 0.5, "velocity": 50}
    ]},
    {"track_index": 4, "track_name": "Percussion", "notes": [
      {"pitch": 54, "start_beat": 6.5, "duration": 0.25, "velocity": 48},
      {"pitch": 56, "start_beat": 11.75, "duration": 0.25, "velocity": 52},
      {"pitch": 54, "start_beat": 22.5, "duration": 0.25, "velocity": 50},
      {"pitch": 58, "start_beat": 27.75, "duration": 0.25, "velocity": 54},
      {"pitch": 56, "start_beat": 38.5, "duration": 0.25, "velocity": 52},
      {"pitch": 54, "start_beat": 43.75, "duration": 0.25, "velocity": 48}
    ]},
    {"track_index": 5, "track_name": "Bass", "notes": [
      {"pitch": 33, "start_beat": 0.0, "duration": 8.0, "velocity": 70},
      {"pitch": 33, "start_beat": 8.0, "duration": 8.0, "velocity": 78},
      {"pitch": 29, "start_beat": 16.0, "duration": 8.0, "velocity": 75},
      {"pitch": 29, "start_beat": 24.0, "duration": 8.0, "velocity": 80},
      {"pitch": 36, "start_beat": 32.0, "duration": 8.0, "velocity": 78},
      {"pitch": 36, "start_beat": 40.0, "duration": 8.0, "velocity": 82},
      {"pitch": 28, "start_beat": 48.0, "duration": 8.0, "velocity": 72},
      {"pitch": 28, "start_beat": 56.0, "duration": 8.0, "velocity": 65}
    ]},
    {"track_index": 6, "track_name": "Chord/Rhodes", "notes": [
      {"pitch": 57, "start_beat": 0.0, "duration": 16.0, "velocity": 60},
      {"pitch": 60, "start_beat": 0.0, "duration": 16.0, "velocity": 58},
      {"pitch": 64, "start_beat": 0.0, "duration": 16.0, "velocity": 62},
      {"pitch": 67, "start_beat": 0.0, "duration": 16.0, "velocity": 55},
      {"pitch": 71, "start_beat": 0.0, "duration": 16.0, "velocity": 50},
      {"pitch": 65, "start_beat": 16.0, "duration": 16.0, "velocity": 62},
      {"pitch": 69, "start_beat": 16.0, "duration": 16.0, "velocity": 60},
      {"pitch": 72, "start_beat": 16.0, "duration": 16.0, "velocity": 64},
      {"pitch": 76, "start_beat": 16.0, "duration": 16.0, "velocity": 52},
      {"pitch": 60, "start_beat": 32.0, "duration": 16.0, "velocity": 65},
      {"pitch": 64, "start_beat": 32.0, "duration": 16.0, "velocity": 62},
      {"pitch": 67, "start_beat": 32.0, "duration": 16.0, "velocity": 60},
      {"pitch": 71, "start_beat": 32.0, "duration": 16.0, "velocity": 55},
      {"pitch": 64, "start_beat": 48.0, "duration": 16.0, "velocity": 58},
      {"pitch": 67, "start_beat": 48.0, "duration": 16.0, "velocity": 60},
      {"pitch": 71, "start_beat": 48.0, "duration": 16.0, "velocity": 55},
      {"pitch": 74, "start_beat": 48.0, "duration": 16.0, "velocity": 50}
    ]},
    {"track_index": 7, "track_name": "Lead", "notes": [
      {"pitch": 76, "start_beat": 4.0, "duration": 4.0, "velocity": 55},
      {"pitch": 79, "start_beat": 10.0, "duration": 3.5, "velocity": 60},
      {"pitch": 77, "start_beat": 20.0, "duration": 4.0, "velocity": 58},
      {"pitch": 81, "start_beat": 26.0, "duration": 4.0, "velocity": 62},
      {"pitch": 79, "start_beat": 36.0, "duration": 4.0, "velocity": 60},
      {"pitch": 83, "start_beat": 42.0, "duration": 4.0, "velocity": 65},
      {"pitch": 76, "start_beat": 52.0, "duration": 6.0, "velocity": 55},
      {"pitch": 71, "start_beat": 60.0, "duration": 4.0, "velocity": 48}
    ]},
    {"track_index": 8, "track_name": "Pad/Texture", "notes": [
      {"pitch": 67, "start_beat": 0.0, "duration": 16.0, "velocity": 45},
      {"pitch": 72, "start_beat": 0.0, "duration": 16.0, "velocity": 42},
      {"pitch": 76, "start_beat": 0.0, "duration": 16.0, "velocity": 40},
      {"pitch": 69, "start_beat": 16.0, "duration": 16.0, "velocity": 48},
      {"pitch": 72, "start_beat": 16.0, "duration": 16.0, "velocity": 45},
      {"pitch": 76, "start_beat": 16.0, "duration": 16.0, "velocity": 42},
      {"pitch": 67, "start_beat": 32.0, "duration": 16.0, "velocity": 50},
      {"pitch": 71, "start_beat": 32.0, "duration": 16.0, "velocity": 48},
      {"pitch": 74, "start_beat": 32.0, "duration": 16.0, "velocity": 45},
      {"pitch": 67, "start_beat": 48.0, "duration": 16.0, "velocity": 45},
      {"pitch": 71, "start_beat": 48.0, "duration": 16.0, "velocity": 42},
      {"pitch": 74, "start_beat": 48.0, "duration": 16.0, "velocity": 40}
    ]},
    {"track_index": 9, "track_name": "FX/Riser", "notes": [
      {"pitch": 84, "start_beat": 14.0, "duration": 2.0, "velocity": 40},
      {"pitch": 88, "start_beat": 30.0, "duration": 2.0, "velocity": 45},
      {"pitch": 91, "start_beat": 46.0, "duration": 2.0, "velocity": 42},
      {"pitch": 79, "start_beat": 56.0, "duration": 8.0, "velocity": 38}
    ]}
  ]
}