{
  "meta": {
    "bpm": 134,
    "bars": 16,
    "key": "F minor",
    "style": "ambient_pad"
  },
  "tracks": [
    {
      "track_index": 0,
      "track_name": "Kick",
      "notes": [
        {
          "pitch": 36,
          "start_beat": 0.0,
          "duration": 0.5,
          "velocity": 100
        },
        {
          "pitch": 36,
          "start_beat": 16.0,
          "duration": 0.5,
          "velocity": 95
        },
        {
          "pitch": 36,
          "start_beat": 32.0,
          "duration": 0.5,
          "velocity": 95
        },
        {
          "pitch": 36,
          "start_beat": 48.0,
          "duration": 0.5,
          "velocity": 90
        }
      ]
    },
    {
      "track_index": 1,
      "track_name": "Snare/Clap",
      "notes": []
    },
    {
      "track_index": 2,
      "track_name": "Closed Hat",
      "notes": []
    },
    {
      "track_index": 3,
      "track_name": "Open Hat",
      "notes": []
    },
    {
      "track_index": 4,
      "track_name": "Percussion",
      "notes": [
        {
          "pitch": 54,
          "start_beat": 6.5,
          "duration": 0.25,
          "velocity": 50
        },
        {
          "pitch": 56,
          "start_beat": 14.75,
          "duration": 0.25,
          "velocity": 55
        },
        {
          "pitch": 54,
          "start_beat": 22.5,
          "duration": 0.25,
          "velocity": 52
        },
        {
          "pitch": 56,
          "start_beat": 30.75,
          "duration": 0.25,
          "velocity": 58
        },
        {
          "pitch": 54,
          "start_beat": 38.5,
          "duration": 0.25,
          "velocity": 50
        },
        {
          "pitch": 56,
          "start_beat": 46.75,
          "duration": 0.25,
          "velocity": 55
        }
      ]
    },
    {
      "track_index": 5,
      "track_name": "Bass",
      "notes": [
        {
          "pitch": 29,
          "start_beat": 0.0,
          "duration": 16.0,
          "velocity": 70
        },
        {
          "pitch": 37,
          "start_beat": 16.0,
          "duration": 16.0,
          "velocity": 72
        },
        {
          "pitch": 32,
          "start_beat": 32.0,
          "duration": 16.0,
          "velocity": 70
        },
        {
          "pitch": 36,
          "start_beat": 48.0,
          "duration": 14.0,
          "velocity": 68
        },
        {
          "pitch": 36,
          "start_beat": 62.0,
          "duration": 2.0,
          "velocity": 55
        }
      ]
    },
    {
      "track_index": 6,
      "track_name": "Chord/Rhodes",
      "notes": [
        {
          "pitch": 56,
          "start_beat": 0.0,
          "duration": 16.0,
          "velocity": 60
        },
        {
          "pitch": 63,
          "start_beat": 0.0,
          "duration": 16.0,
          "velocity": 58
        },
        {
          "pitch": 67,
          "start_beat": 0.0,
          "duration": 16.0,
          "velocity": 55
        },
        {
          "pitch": 70,
          "start_beat": 0.0,
          "duration": 16.0,
          "velocity": 52
        },
        {
          "pitch": 61,
          "start_beat": 16.0,
          "duration": 16.0,
          "velocity": 62
        },
        {
          "pitch": 65,
          "start_beat": 16.0,
          "duration": 16.0,
          "velocity": 58
        },
        {
          "pitch": 68,
          "start_beat": 16.0,
          "duration": 16.0,
          "velocity": 55
        },
        {
          "pitch": 72,
          "start_beat": 16.0,
          "duration": 16.0,
          "velocity": 54
        },
        {
          "pitch": 56,
          "start_beat": 32.0,
          "duration": 16.0,
          "velocity": 64
        },
        {
          "pitch": 60,
          "start_beat": 32.0,
          "duration": 16.0,
          "velocity": 60
        },
        {
          "pitch": 63,
          "start_beat": 32.0,
          "duration": 16.0,
          "velocity": 57
        },
        {
          "pitch": 67,
          "start_beat": 32.0,
          "duration": 16.0,
          "velocity": 55
        },
        {
          "pitch": 60,
          "start_beat": 48.0,
          "duration": 16.0,
          "velocity": 62
        },
        {
          "pitch": 63,
          "start_beat": 48.0,
          "duration": 16.0,
          "velocity": 58
        },
        {
          "pitch": 67,
          "start_beat": 48.0,
          "duration": 16.0,
          "velocity": 55
        },
        {
          "pitch": 70,
          "start_beat": 48.0,
          "duration": 16.0,
          "velocity": 54
        }
      ]
    },
    {
      "track_index": 7,
      "track_name": "Lead",
      "notes": [
        {
          "pitch": 75,
          "start_beat": 2.0,
          "duration": 6.0,
          "velocity": 60
        },
        {
          "pitch": 72,
          "start_beat": 10.0,
          "duration": 5.0,
          "velocity": 65
        },
        {
          "pitch": 73,
          "start_beat": 18.0,
          "duration": 6.0,
          "velocity": 62
        },
        {
          "pitch": 77,
          "start_beat": 26.0,
          "duration": 5.0,
          "velocity": 68
        },
        {
          "pitch": 75,
          "start_beat": 34.0,
          "duration": 6.0,
          "velocity": 64
        },
        {
          "pitch": 79,
          "start_beat": 42.0,
          "duration": 5.0,
          "velocity": 70
        },
        {
          "pitch": 75,
          "start_beat": 50.0,
          "duration": 8.0,
          "velocity": 60
        },
        {
          "pitch": 72,
          "start_beat": 58.0,
          "duration": 5.0,
          "velocity": 52
        }
      ]
    },
    {
      "track_index": 8,
      "track_name": "Pad/Texture",
      "notes": [
        {
          "pitch": 68,
          "start_beat": 0.0,
          "duration": 16.0,
          "velocity": 55
        },
        {
          "pitch": 75,
          "start_beat": 0.0,
          "duration": 16.0,
          "velocity": 50
        },
        {
          "pitch": 72,
          "start_beat": 16.0,
          "duration": 16.0,
          "velocity": 58
        },
        {
          "pitch": 77,
          "start_beat": 16.0,
          "duration": 16.0,
          "velocity": 52
        },
        {
          "pitch": 68,
          "start_beat": 32.0,
          "duration": 16.0,
          "velocity": 60
        },
        {
          "pitch": 75,
          "start_beat": 32.0,
          "duration": 16.0,
          "velocity": 54
        },
        {
          "pitch": 70,
          "start_beat": 48.0,
          "duration": 16.0,
          "velocity": 58
        },
        {
          "pitch": 75,
          "start_beat": 48.0,
          "duration": 16.0,
          "velocity": 50
        }
      ]
    },
    {
      "track_index": 9,
      "track_name": "FX/Riser",
      "notes": [
        {
          "pitch": 84,
          "start_beat": 14.0,
          "duration": 2.0,
          "velocity": 45
        },
        {
          "pitch": 84,
          "start_beat": 30.0,
          "duration": 2.0,
          "velocity": 50
        },
        {
          "pitch": 84,
          "start_beat": 46.0,
          "duration": 2.0,
          "velocity": 55
        },
        {
          "pitch": 88,
          "start_beat": 60.0,
          "duration": 4.0,
          "velocity": 65
        }
      ]
    }
  ]
}