{
  "meta": {
    "bpm": 134,
    "bars": 16,
    "key": "E minor",
    "style": "sparse_minimal"
  },
  "tracks": [
    {
      "track_index": 0,
      "track_name": "Kick",
      "notes": [
        {
          "pitch": 36,
          "start_beat": 0.0,
          "duration": 0.25,
          "velocity": 115
        },
        {
          "pitch": 36,
          "start_beat": 2.0,
          "duration": 0.25,
          "velocity": 108
        },
        {
          "pitch": 36,
          "start_beat": 4.0,
          "duration": 0.25,
          "velocity": 115
        },
        {
          "pitch": 36,
          "start_beat": 6.0,
          "duration": 0.25,
          "velocity": 108
        },
        {
          "pitch": 36,
          "start_beat": 8.0,
          "duration": 0.25,
          "velocity": 115
        },
        {
          "pitch": 36,
          "start_beat": 10.0,
          "duration": 0.25,
          "velocity": 108
        },
        {
          "pitch": 36,
          "start_beat": 12.0,
          "duration": 0.25,
          "velocity": 115
        },
        {
          "pitch": 36,
          "start_beat": 14.0,
          "duration": 0.25,
          "velocity": 108
        },
        {
          "pitch": 36,
          "start_beat": 16.0,
          "duration": 0.25,
          "velocity": 115
        },
        {
          "pitch": 36,
          "start_beat": 18.0,
          "duration": 0.25,
          "velocity": 108
        },
        {
          "pitch": 36,
          "start_beat": 20.0,
          "duration": 0.25,
          "velocity": 115
        },
        {
          "pitch": 36,
          "start_beat": 22.0,
          "duration": 0.25,
          "velocity": 108
        },
        {
          "pitch": 36,
          "start_beat": 24.0,
          "duration": 0.25,
          "velocity": 115
        },
        {
          "pitch": 36,
          "start_beat": 26.0,
          "duration": 0.25,
          "velocity": 108
        },
        {
          "pitch": 36,
          "start_beat": 28.0,
          "duration": 0.25,
          "velocity": 115
        },
        {
          "pitch": 36,
          "start_beat": 30.0,
          "duration": 0.25,
          "velocity": 108
        },
        {
          "pitch": 36,
          "start_beat": 32.0,
          "duration": 0.25,
          "velocity": 115
        },
        {
          "pitch": 36,
          "start_beat": 34.0,
          "duration": 0.25,
          "velocity": 108
        },
        {
          "pitch": 36,
          "start_beat": 36.0,
          "duration": 0.25,
          "velocity": 115
        },
        {
          "pitch": 36,
          "start_beat": 38.0,
          "duration": 0.25,
          "velocity": 108
        },
        {
          "pitch": 36,
          "start_beat": 40.0,
          "duration": 0.25,
          "velocity": 115
        },
        {
          "pitch": 36,
          "start_beat": 42.0,
          "duration": 0.25,
          "velocity": 108
        },
        {
          "pitch": 36,
          "start_beat": 44.0,
          "duration": 0.25,
          "velocity": 115
        },
        {
          "pitch": 36,
          "start_beat": 46.0,
          "duration": 0.25,
          "velocity": 108
        },
        {
          "pitch": 36,
          "start_beat": 48.0,
          "duration": 0.25,
          "velocity": 115
        },
        {
          "pitch": 36,
          "start_beat": 50.0,
          "duration": 0.25,
          "velocity": 108
        },
        {
          "pitch": 36,
          "start_beat": 52.0,
          "duration": 0.25,
          "velocity": 115
        },
        {
          "pitch": 36,
          "start_beat": 54.0,
          "duration": 0.25,
          "velocity": 108
        },
        {
          "pitch": 36,
          "start_beat": 56.0,
          "duration": 0.25,
          "velocity": 115
        },
        {
          "pitch": 36,
          "start_beat": 58.0,
          "duration": 0.25,
          "velocity": 108
        },
        {
          "pitch": 36,
          "start_beat": 60.0,
          "duration": 0.25,
          "velocity": 115
        }
      ]
    },
    {
      "track_index": 1,
      "track_name": "Snare/Clap",
      "notes": [
        {
          "pitch": 40,
          "start_beat": 1.0,
          "duration": 0.25,
          "velocity": 100
        },
        {
          "pitch": 40,
          "start_beat": 3.0,
          "duration": 0.25,
          "velocity": 100
        },
        {
          "pitch": 40,
          "start_beat": 5.0,
          "duration": 0.25,
          "velocity": 100
        },
        {
          "pitch": 40,
          "start_beat": 7.0,
          "duration": 0.25,
          "velocity": 100
        },
        {
          "pitch": 40,
          "start_beat": 9.0,
          "duration": 0.25,
          "velocity": 100
        },
        {
          "pitch": 40,
          "start_beat": 11.0,
          "duration": 0.25,
          "velocity": 100
        },
        {
          "pitch": 40,
          "start_beat": 13.0,
          "duration": 0.25,
          "velocity": 100
        },
        {
          "pitch": 40,
          "start_beat": 15.0,
          "duration": 0.25,
          "velocity": 100
        },
        {
          "pitch": 40,
          "start_beat": 17.0,
          "duration": 0.25,
          "velocity": 100
        },
        {
          "pitch": 40,
          "start_beat": 19.0,
          "duration": 0.25,
          "velocity": 100
        },
        {
          "pitch": 40,
          "start_beat": 21.0,
          "duration": 0.25,
          "velocity": 100
        },
        {
          "pitch": 40,
          "start_beat": 23.0,
          "duration": 0.25,
          "velocity": 100
        },
        {
          "pitch": 40,
          "start_beat": 25.0,
          "duration": 0.25,
          "velocity": 100
        },
        {
          "pitch": 40,
          "start_beat": 27.0,
          "duration": 0.25,
          "velocity": 100
        },
        {
          "pitch": 40,
          "start_beat": 29.0,
          "duration": 0.25,
          "velocity": 100
        },
        {
          "pitch": 40,
          "start_beat": 31.0,
          "duration": 0.25,
          "velocity": 100
        },
        {
          "pitch": 40,
          "start_beat": 33.0,
          "duration": 0.25,
          "velocity": 100
        },
        {
          "pitch": 40,
          "start_beat": 35.0,
          "duration": 0.25,
          "velocity": 100
        },
        {
          "pitch": 40,
          "start_beat": 37.0,
          "duration": 0.25,
          "velocity": 100
        },
        {
          "pitch": 40,
          "start_beat": 39.0,
          "duration": 0.25,
          "velocity": 100
        },
        {
          "pitch": 40,
          "start_beat": 41.0,
          "duration": 0.25,
          "velocity": 100
        },
        {
          "pitch": 40,
          "start_beat": 43.0,
          "duration": 0.25,
          "velocity": 100
        },
        {
          "pitch": 40,
          "start_beat": 45.0,
          "duration": 0.25,
          "velocity": 100
        },
        {
          "pitch": 40,
          "start_beat": 47.0,
          "duration": 0.25,
          "velocity": 100
        },
        {
          "pitch": 40,
          "start_beat": 49.0,
          "duration": 0.25,
          "velocity": 100
        },
        {
          "pitch": 40,
          "start_beat": 51.0,
          "duration": 0.25,
          "velocity": 100
        },
        {
          "pitch": 40,
          "start_beat": 53.0,
          "duration": 0.25,
          "velocity": 100
        },
        {
          "pitch": 40,
          "start_beat": 55.0,
          "duration": 0.25,
          "velocity": 100
        },
        {
          "pitch": 40,
          "start_beat": 57.0,
          "duration": 0.25,
          "velocity": 100
        },
        {
          "pitch": 40,
          "start_beat": 59.0,
          "duration": 0.25,
          "velocity": 100
        },
        {
          "pitch": 40,
          "start_beat": 61.0,
          "duration": 0.25,
          "velocity": 100
        },
        {
          "pitch": 40,
          "start_beat": 63.0,
          "duration": 0.25,
          "velocity": 100
        }
      ]
    },
    {
      "track_index": 2,
      "track_name": "Closed Hat",
      "notes": [
        {
          "pitch": 42,
          "start_beat": 0.5,
          "duration": 0.125,
          "velocity": 70
        },
        {
          "pitch": 42,
          "start_beat": 1.5,
          "duration": 0.125,
          "velocity": 75
        },
        {
          "pitch": 42,
          "start_beat": 2.5,
          "duration": 0.125,
          "velocity": 70
        },
        {
          "pitch": 42,
          "start_beat": 3.5,
          "duration": 0.125,
          "velocity": 75
        },
        {
          "pitch": 42,
          "start_beat": 4.5,
          "duration": 0.125,
          "velocity": 70
        },
        {
          "pitch": 42,
          "start_beat": 5.5,
          "duration": 0.125,
          "velocity": 75
        },
        {
          "pitch": 42,
          "start_beat": 6.5,
          "duration": 0.125,
          "velocity": 70
        },
        {
          "pitch": 42,
          "start_beat": 7.5,
          "duration": 0.125,
          "velocity": 75
        },
        {
          "pitch": 42,
          "start_beat": 8.5,
          "duration": 0.125,
          "velocity": 70
        },
        {
          "pitch": 42,
          "start_beat": 9.5,
          "duration": 0.125,
          "velocity": 75
        },
        {
          "pitch": 42,
          "start_beat": 10.5,
          "duration": 0.125,
          "velocity": 70
        },
        {
          "pitch": 42,
          "start_beat": 11.5,
          "duration": 0.125,
          "velocity": 75
        },
        {
          "pitch": 42,
          "start_beat": 12.5,
          "duration": 0.125,
          "velocity": 70
        },
        {
          "pitch": 42,
          "start_beat": 13.5,
          "duration": 0.125,
          "velocity": 75
        },
        {
          "pitch": 42,
          "start_beat": 14.5,
          "duration": 0.125,
          "velocity": 70
        },
        {
          "pitch": 42,
          "start_beat": 15.5,
          "duration": 0.125,
          "velocity": 75
        },
        {
          "pitch": 42,
          "start_beat": 16.5,
          "duration": 0.125,
          "velocity": 70
        },
        {
          "pitch": 42,
          "start_beat": 17.5,
          "duration": 0.125,
          "velocity": 75
        },
        {
          "pitch": 42,
          "start_beat": 18.5,
          "duration": 0.125,
          "velocity": 70
        },
        {
          "pitch": 42,
          "start_beat": 19.5,
          "duration": 0.125,
          "velocity": 75
        },
        {
          "pitch": 42,
          "start_beat": 20.5,
          "duration": 0.125,
          "velocity": 70
        },
        {
          "pitch": 42,
          "start_beat": 21.5,
          "duration": 0.125,
          "velocity": 75
        },
        {
          "pitch": 42,
          "start_beat": 22.5,
          "duration": 0.125,
          "velocity": 70
        },
        {
          "pitch": 42,
          "start_beat": 23.5,
          "duration": 0.125,
          "velocity": 75
        },
        {
          "pitch": 42,
          "start_beat": 24.5,
          "duration": 0.125,
          "velocity": 70
        },
        {
          "pitch": 42,
          "start_beat": 25.5,
          "duration": 0.125,
          "velocity": 75
        },
        {
          "pitch": 42,
          "start_beat": 26.5,
          "duration": 0.125,
          "velocity": 70
        },
        {
          "pitch": 42,
          "start_beat": 27.5,
          "duration": 0.125,
          "velocity": 75
        },
        {
          "pitch": 42,
          "start_beat": 28.5,
          "duration": 0.125,
          "velocity": 70
        },
        {
          "pitch": 42,
          "start_beat": 29.5,
          "duration": 0.125,
          "velocity": 75
        },
        {
          "pitch": 42,
          "start_beat": 30.5,
          "duration": 0.125,
          "velocity": 70
        },
        {
          "pitch": 42,
          "start_beat": 31.5,
          "duration": 0.125,
          "velocity": 75
        },
        {
          "pitch": 42,
          "start_beat": 32.5,
          "duration": 0.125,
          "velocity": 70
        },
        {
          "pitch": 42,
          "start_beat": 33.5,
          "duration": 0.125,
          "velocity": 75
        },
        {
          "pitch": 42,
          "start_beat": 34.5,
          "duration": 0.125,
          "velocity": 70
        },
        {
          "pitch": 42,
          "start_beat": 35.5,
          "duration": 0.125,
          "velocity": 75
        },
        {
          "pitch": 42,
          "start_beat": 36.5,
          "duration": 0.125,
          "velocity": 70
        },
        {
          "pitch": 42,
          "start_beat": 37.5,
          "duration": 0.125,
          "velocity": 75
        },
        {
          "pitch": 42,
          "start_beat": 38.5,
          "duration": 0.125,
          "velocity": 70
        },
        {
          "pitch": 42,
          "start_beat": 39.5,
          "duration": 0.125,
          "velocity": 75
        },
        {
          "pitch": 42,
          "start_beat": 40.5,
          "duration": 0.125,
          "velocity": 70
        },
        {
          "pitch": 42,
          "start_beat": 41.5,
          "duration": 0.125,
          "velocity": 75
        },
        {
          "pitch": 42,
          "start_beat": 42.5,
          "duration": 0.125,
          "velocity": 70
        },
        {
          "pitch": 42,
          "start_beat": 43.5,
          "duration": 0.125,
          "velocity": 75
        },
        {
          "pitch": 42,
          "start_beat": 44.5,
          "duration": 0.125,
          "velocity": 70
        },
        {
          "pitch": 42,
          "start_beat": 45.5,
          "duration": 0.125,
          "velocity": 75
        },
        {
          "pitch": 42,
          "start_beat": 46.5,
          "duration": 0.125,
          "velocity": 70
        },
        {
          "pitch": 42,
          "start_beat": 47.5,
          "duration": 0.125,
          "velocity": 75
        },
        {
          "pitch": 42,
          "start_beat": 48.5,
          "duration": 0.125,
          "velocity": 70
        },
        {
          "pitch": 42,
          "start_beat": 49.5,
          "duration": 0.125,
          "velocity": 75
        },
        {
          "pitch": 42,
          "start_beat": 50.5,
          "duration": 0.125,
          "velocity": 70
        },
        {
          "pitch": 42,
          "start_beat": 51.5,
          "duration": 0.125,
          "velocity": 75
        },
        {
          "pitch": 42,
          "start_beat": 52.5,
          "duration": 0.125,
          "velocity": 70
        },
        {
          "pitch": 42,
          "start_beat": 53.5,
          "duration": 0.125,
          "velocity": 75
        },
        {
          "pitch": 42,
          "start_beat": 54.5,
          "duration": 0.125,
          "velocity": 70
        },
        {
          "pitch": 42,
          "start_beat": 55.5,
          "duration": 0.125,
          "velocity": 75
        },
        {
          "pitch": 42,
          "start_beat": 56.5,
          "duration": 0.125,
          "velocity": 70
        },
        {
          "pitch": 42,
          "start_beat": 57.5,
          "duration": 0.125,
          "velocity": 75
        },
        {
          "pitch": 42,
          "start_beat": 58.5,
          "duration": 0.125,
          "velocity": 70
        },
        {
          "pitch": 42,
          "start_beat": 59.5,
          "duration": 0.125,
          "velocity": 75
        },
        {
          "pitch": 42,
          "start_beat": 60.5,
          "duration": 0.125,
          "velocity": 70
        },
        {
          "pitch": 42,
          "start_beat": 61.5,
          "duration": 0.125,
          "velocity": 75
        },
        {
          "pitch": 42,
          "start_beat": 62.5,
          "duration": 0.125,
          "velocity": 70
        },
        {
          "pitch": 42,
          "start_beat": 63.5,
          "duration": 0.125,
          "velocity": 75
        }
      ]
    },
    {
      "track_index": 3,
      "track_name": "Open Hat",
      "notes": [
        {
          "pitch": 46,
          "start_beat": 6.5,
          "duration": 0.25,
          "velocity": 85
        },
        {
          "pitch": 46,
          "start_beat": 14.5,
          "duration": 0.25,
          "velocity": 85
        },
        {
          "pitch": 46,
          "start_beat": 22.5,
          "duration": 0.25,
          "velocity": 85
        },
        {
          "pitch": 46,
          "start_beat": 30.5,
          "duration": 0.25,
          "velocity": 85
        },
        {
          "pitch": 46,
          "start_beat": 38.5,
          "duration": 0.25,
          "velocity": 85
        },
        {
          "pitch": 46,
          "start_beat": 46.5,
          "duration": 0.25,
          "velocity": 85
        },
        {
          "pitch": 46,
          "start_beat": 54.5,
          "duration": 0.25,
          "velocity": 85
        },
        {
          "pitch": 46,
          "start_beat": 62.5,
          "duration": 0.25,
          "velocity": 90
        }
      ]
    },
    {
      "track_index": 4,
      "track_name": "Percussion",
      "notes": [
        {
          "pitch": 54,
          "start_beat": 2.75,
          "duration": 0.125,
          "velocity": 70
        },
        {
          "pitch": 56,
          "start_beat": 7.25,
          "duration": 0.125,
          "velocity": 65
        },
        {
          "pitch": 54,
          "start_beat": 10.75,
          "duration": 0.125,
          "velocity": 70
        },
        {
          "pitch": 56,
          "start_beat": 13.75,
          "duration": 0.125,
          "velocity": 80
        },
        {
          "pitch": 54,
          "start_beat": 18.75,
          "duration": 0.125,
          "velocity": 70
        },
        {
          "pitch": 56,
          "start_beat": 23.25,
          "duration": 0.125,
          "velocity": 65
        },
        {
          "pitch": 54,
          "start_beat": 26.75,
          "duration": 0.125,
          "velocity": 70
        },
        {
          "pitch": 56,
          "start_beat": 29.75,
          "duration": 0.125,
          "velocity": 80
        },
        {
          "pitch": 54,
          "start_beat": 34.75,
          "duration": 0.125,
          "velocity": 70
        },
        {
          "pitch": 56,
          "start_beat": 39.25,
          "duration": 0.125,
          "velocity": 65
        },
        {
          "pitch": 54,
          "start_beat": 42.75,
          "duration": 0.125,
          "velocity": 70
        },
        {
          "pitch": 56,
          "start_beat": 45.75,
          "duration": 0.125,
          "velocity": 80
        },
        {
          "pitch": 54,
          "start_beat": 50.75,
          "duration": 0.125,
          "velocity": 70
        },
        {
          "pitch": 56,
          "start_beat": 55.25,
          "duration": 0.125,
          "velocity": 65
        },
        {
          "pitch": 54,
          "start_beat": 58.75,
          "duration": 0.125,
          "velocity": 70
        },
        {
          "pitch": 56,
          "start_beat": 61.75,
          "duration": 0.125,
          "velocity": 85
        }
      ]
    },
    {
      "track_index": 5,
      "track_name": "Bass",
      "notes": [
        {
          "pitch": 28,
          "start_beat": 0.0,
          "duration": 2.0,
          "velocity": 105
        },
        {
          "pitch": 28,
          "start_beat": 2.0,
          "duration": 2.0,
          "velocity": 100
        },
        {
          "pitch": 28,
          "start_beat": 4.0,
          "duration": 2.0,
          "velocity": 105
        },
        {
          "pitch": 28,
          "start_beat": 6.0,
          "duration": 2.0,
          "velocity": 100
        },
        {
          "pitch": 28,
          "start_beat": 8.0,
          "duration": 2.0,
          "velocity": 105
        },
        {
          "pitch": 28,
          "start_beat": 10.0,
          "duration": 2.0,
          "velocity": 100
        },
        {
          "pitch": 28,
          "start_beat": 12.0,
          "duration": 2.0,
          "velocity": 105
        },
        {
          "pitch": 28,
          "start_beat": 14.0,
          "duration": 2.0,
          "velocity": 100
        },
        {
          "pitch": 36,
          "start_beat": 16.0,
          "duration": 2.0,
          "velocity": 105
        },
        {
          "pitch": 36,
          "start_beat": 18.0,
          "duration": 2.0,
          "velocity": 100
        },
        {
          "pitch": 36,
          "start_beat": 20.0,
          "duration": 2.0,
          "velocity": 105
        },
        {
          "pitch": 36,
          "start_beat": 22.0,
          "duration": 2.0,
          "velocity": 100
        },
        {
          "pitch": 36,
          "start_beat": 24.0,
          "duration": 2.0,
          "velocity": 105
        },
        {
          "pitch": 36,
          "start_beat": 26.0,
          "duration": 2.0,
          "velocity": 100
        },
        {
          "pitch": 36,
          "start_beat": 28.0,
          "duration": 2.0,
          "velocity": 105
        },
        {
          "pitch": 36,
          "start_beat": 30.0,
          "duration": 2.0,
          "velocity": 100
        },
        {
          "pitch": 31,
          "start_beat": 32.0,
          "duration": 2.0,
          "velocity": 105
        },
        {
          "pitch": 31,
          "start_beat": 34.0,
          "duration": 2.0,
          "velocity": 100
        },
        {
          "pitch": 31,
          "start_beat": 36.0,
          "duration": 2.0,
          "velocity": 105
        },
        {
          "pitch": 31,
          "start_beat": 38.0,
          "duration": 2.0,
          "velocity": 100
        },
        {
          "pitch": 31,
          "start_beat": 40.0,
          "duration": 2.0,
          "velocity": 105
        },
        {
          "pitch": 31,
          "start_beat": 42.0,
          "duration": 2.0,
          "velocity": 100
        },
        {
          "pitch": 31,
          "start_beat": 44.0,
          "duration": 2.0,
          "velocity": 105
        },
        {
          "pitch": 31,
          "start_beat": 46.0,
          "duration": 2.0,
          "velocity": 100
        },
        {
          "pitch": 35,
          "start_beat": 48.0,
          "duration": 2.0,
          "velocity": 105
        },
        {
          "pitch": 35,
          "start_beat": 50.0,
          "duration": 2.0,
          "velocity": 100
        },
        {
          "pitch": 35,
          "start_beat": 52.0,
          "duration": 2.0,
          "velocity": 105
        },
        {
          "pitch": 35,
          "start_beat": 54.0,
          "duration": 2.0,
          "velocity": 100
        },
        {
          "pitch": 35,
          "start_beat": 56.0,
          "duration": 2.0,
          "velocity": 105
        },
        {
          "pitch": 35,
          "start_beat": 58.0,
          "duration": 2.0,
          "velocity": 100
        },
        {
          "pitch": 35,
          "start_beat": 60.0,
          "duration": 2.0,
          "velocity": 105
        },
        {
          "pitch": 35,
          "start_beat": 62.0,
          "duration": 1.5,
          "velocity": 95
        }
      ]
    },
    {
      "track_index": 6,
      "track_name": "Chord/Rhodes",
      "notes": [
        {
          "pitch": 67,
          "start_beat": 0.0,
          "duration": 16.0,
          "velocity": 75
        },
        {
          "pitch": 71,
          "start_beat": 0.0,
          "duration": 16.0,
          "velocity": 70
        },
        {
          "pitch": 74,
          "start_beat": 0.0,
          "duration": 16.0,
          "velocity": 72
        },
        {
          "pitch": 78,
          "start_beat": 0.0,
          "duration": 16.0,
          "velocity": 68
        },
        {
          "pitch": 64,
          "start_beat": 16.0,
          "duration": 16.0,
          "velocity": 75
        },
        {
          "pitch": 67,
          "start_beat": 16.0,
          "duration": 16.0,
          "velocity": 70
        },
        {
          "pitch": 71,
          "start_beat": 16.0,
          "duration": 16.0,
          "velocity": 72
        },
        {
          "pitch": 74,
          "start_beat": 16.0,
          "duration": 16.0,
          "velocity": 68
        },
        {
          "pitch": 67,
          "start_beat": 32.0,
          "duration": 16.0,
          "velocity": 75
        },
        {
          "pitch": 71,
          "start_beat": 32.0,
          "duration": 16.0,
          "velocity": 70
        },
        {
          "pitch": 74,
          "start_beat": 32.0,
          "duration": 16.0,
          "velocity": 72
        },
        {
          "pitch": 78,
          "start_beat": 32.0,
          "duration": 16.0,
          "velocity": 68
        },
        {
          "pitch": 66,
          "start_beat": 48.0,
          "duration": 15.5,
          "velocity": 75
        },
        {
          "pitch": 69,
          "start_beat": 48.0,
          "duration": 15.5,
          "velocity": 70
        },
        {
          "pitch": 73,
          "start_beat": 48.0,
          "duration": 15.5,
          "velocity": 72
        },
        {
          "pitch": 76,
          "start_beat": 48.0,
          "duration": 15.5,
          "velocity": 68
        }
      ]
    },
    {
      "track_index": 7,
      "track_name": "Lead",
      "notes": [
        {
          "pitch": 79,
          "start_beat": 14.5,
          "duration": 1.0,
          "velocity": 78
        },
        {
          "pitch": 76,
          "start_beat": 30.5,
          "duration": 1.0,
          "velocity": 75
        },
        {
          "pitch": 78,
          "start_beat": 46.5,
          "duration": 1.0,
          "velocity": 78
        },
        {
          "pitch": 74,
          "start_beat": 62.0,
          "duration": 0.75,
          "velocity": 72
        },
        {
          "pitch": 81,
          "start_beat": 62.75,
          "duration": 0.75,
          "velocity": 80
        }
      ]
    },
    {
      "track_index": 8,
      "track_name": "Pad/Texture",
      "notes": [
        {
          "pitch": 67,
          "start_beat": 0.0,
          "duration": 16.0,
          "velocity": 55
        },
        {
          "pitch": 62,
          "start_beat": 16.0,
          "duration": 16.0,
          "velocity": 55
        },
        {
          "pitch": 71,
          "start_beat": 32.0,
          "duration": 16.0,
          "velocity": 55
        },
        {
          "pitch": 69,
          "start_beat": 48.0,
          "duration": 15.5,
          "velocity": 58
        }
      ]
    },
    {
      "track_index": 9,
      "track_name": "FX/Riser",
      "notes": [
        {
          "pitch": 72,
          "start_beat": 30.0,
          "duration": 2.0,
          "velocity": 60
        },
        {
          "pitch": 84,
          "start_beat": 60.0,
          "duration": 3.5,
          "velocity": 75
        },
        {
          "pitch": 90,
          "start_beat": 63.0,
          "duration": 1.0,
          "velocity": 85
        }
      ]
    }
  ]
}