{
  "meta": {
    "bpm": 124,
    "bars": 16,
    "key": "A minor",
    "style": "ambient_pad"
  },
  "tracks": [
    {
      "track_index": 0,
      "track_name": "Kick",
      "notes": [
        {
          "pitch": 36,
          "start_beat": 0.0,
          "duration": 0.5,
          "velocity": 100
        },
        {
          "pitch": 36,
          "start_beat": 16.0,
          "duration": 0.5,
          "velocity": 102
        },
        {
          "pitch": 36,
          "start_beat": 32.0,
          "duration": 0.5,
          "velocity": 105
        },
        {
          "pitch": 36,
          "start_beat": 48.0,
          "duration": 0.5,
          "velocity": 108
        }
      ]
    },
    {
      "track_index": 1,
      "track_name": "Snare/Clap",
      "notes": [
        {
          "pitch": 40,
          "start_beat": 50.0,
          "duration": 0.25,
          "velocity": 55
        }
      ]
    },
    {
      "track_index": 2,
      "track_name": "Closed Hat",
      "notes": [
        {
          "pitch": 42,
          "start_beat": 32.5,
          "duration": 0.125,
          "velocity": 50
        },
        {
          "pitch": 42,
          "start_beat": 34.5,
          "duration": 0.125,
          "velocity": 52
        },
        {
          "pitch": 42,
          "start_beat": 36.5,
          "duration": 0.125,
          "velocity": 54
        },
        {
          "pitch": 42,
          "start_beat": 38.5,
          "duration": 0.125,
          "velocity": 56
        },
        {
          "pitch": 42,
          "start_beat": 40.5,
          "duration": 0.125,
          "velocity": 58
        },
        {
          "pitch": 42,
          "start_beat": 42.5,
          "duration": 0.125,
          "velocity": 60
        },
        {
          "pitch": 42,
          "start_beat": 44.5,
          "duration": 0.125,
          "velocity": 60
        },
        {
          "pitch": 42,
          "start_beat": 46.5,
          "duration": 0.125,
          "velocity": 62
        },
        {
          "pitch": 42,
          "start_beat": 48.5,
          "duration": 0.125,
          "velocity": 64
        },
        {
          "pitch": 42,
          "start_beat": 49.5,
          "duration": 0.125,
          "velocity": 64
        },
        {
          "pitch": 42,
          "start_beat": 50.5,
          "duration": 0.125,
          "velocity": 66
        },
        {
          "pitch": 42,
          "start_beat": 51.5,
          "duration": 0.125,
          "velocity": 66
        },
        {
          "pitch": 42,
          "start_beat": 52.5,
          "duration": 0.125,
          "velocity": 68
        },
        {
          "pitch": 42,
          "start_beat": 53.5,
          "duration": 0.125,
          "velocity": 68
        },
        {
          "pitch": 42,
          "start_beat": 54.5,
          "duration": 0.125,
          "velocity": 70
        },
        {
          "pitch": 42,
          "start_beat": 55.5,
          "duration": 0.125,
          "velocity": 70
        },
        {
          "pitch": 42,
          "start_beat": 56.5,
          "duration": 0.125,
          "velocity": 72
        },
        {
          "pitch": 42,
          "start_beat": 57.5,
          "duration": 0.125,
          "velocity": 72
        },
        {
          "pitch": 42,
          "start_beat": 58.5,
          "duration": 0.125,
          "velocity": 74
        },
        {
          "pitch": 42,
          "start_beat": 59.5,
          "duration": 0.125,
          "velocity": 74
        },
        {
          "pitch": 42,
          "start_beat": 60.5,
          "duration": 0.125,
          "velocity": 76
        },
        {
          "pitch": 42,
          "start_beat": 61.5,
          "duration": 0.125,
          "velocity": 76
        }
      ]
    },
    {
      "track_index": 3,
      "track_name": "Open Hat",
      "notes": [
        {
          "pitch": 46,
          "start_beat": 33.0,
          "duration": 0.25,
          "velocity": 55
        },
        {
          "pitch": 46,
          "start_beat": 37.0,
          "duration": 0.25,
          "velocity": 58
        },
        {
          "pitch": 46,
          "start_beat": 41.0,
          "duration": 0.25,
          "velocity": 60
        },
        {
          "pitch": 46,
          "start_beat": 45.0,
          "duration": 0.25,
          "velocity": 62
        },
        {
          "pitch": 46,
          "start_beat": 49.0,
          "duration": 0.25,
          "velocity": 65
        },
        {
          "pitch": 46,
          "start_beat": 51.0,
          "duration": 0.25,
          "velocity": 65
        },
        {
          "pitch": 46,
          "start_beat": 53.0,
          "duration": 0.25,
          "velocity": 67
        },
        {
          "pitch": 46,
          "start_beat": 55.0,
          "duration": 0.25,
          "velocity": 67
        },
        {
          "pitch": 46,
          "start_beat": 57.0,
          "duration": 0.25,
          "velocity": 70
        },
        {
          "pitch": 46,
          "start_beat": 59.0,
          "duration": 0.25,
          "velocity": 70
        },
        {
          "pitch": 46,
          "start_beat": 61.0,
          "duration": 0.25,
          "velocity": 72
        },
        {
          "pitch": 46,
          "start_beat": 63.0,
          "duration": 0.25,
          "velocity": 72
        }
      ]
    },
    {
      "track_index": 4,
      "track_name": "Percussion",
      "notes": [
        {
          "pitch": 54,
          "start_beat": 16.0,
          "duration": 0.125,
          "velocity": 45
        },
        {
          "pitch": 54,
          "start_beat": 16.25,
          "duration": 0.125,
          "velocity": 42
        },
        {
          "pitch": 54,
          "start_beat": 16.5,
          "duration": 0.125,
          "velocity": 44
        },
        {
          "pitch": 54,
          "start_beat": 16.75,
          "duration": 0.125,
          "velocity": 42
        },
        {
          "pitch": 54,
          "start_beat": 17.0,
          "duration": 0.125,
          "velocity": 46
        },
        {
          "pitch": 54,
          "start_beat": 17.25,
          "duration": 0.125,
          "velocity": 42
        },
        {
          "pitch": 54,
          "start_beat": 17.5,
          "duration": 0.125,
          "velocity": 44
        },
        {
          "pitch": 54,
          "start_beat": 17.75,
          "duration": 0.125,
          "velocity": 42
        },
        {
          "pitch": 54,
          "start_beat": 18.0,
          "duration": 0.125,
          "velocity": 46
        },
        {
          "pitch": 54,
          "start_beat": 18.5,
          "duration": 0.125,
          "velocity": 44
        },
        {
          "pitch": 54,
          "start_beat": 19.0,
          "duration": 0.125,
          "velocity": 46
        },
        {
          "pitch": 54,
          "start_beat": 19.5,
          "duration": 0.125,
          "velocity": 44
        },
        {
          "pitch": 54,
          "start_beat": 20.0,
          "duration": 0.125,
          "velocity": 48
        },
        {
          "pitch": 54,
          "start_beat": 20.5,
          "duration": 0.125,
          "velocity": 45
        },
        {
          "pitch": 54,
          "start_beat": 21.0,
          "duration": 0.125,
          "velocity": 48
        },
        {
          "pitch": 54,
          "start_beat": 21.5,
          "duration": 0.125,
          "velocity": 45
        },
        {
          "pitch": 54,
          "start_beat": 22.0,
          "duration": 0.125,
          "velocity": 48
        },
        {
          "pitch": 54,
          "start_beat": 22.5,
          "duration": 0.125,
          "velocity": 45
        },
        {
          "pitch": 54,
          "start_beat": 23.0,
          "duration": 0.125,
          "velocity": 48
        },
        {
          "pitch": 54,
          "start_beat": 23.5,
          "duration": 0.125,
          "velocity": 45
        },
        {
          "pitch": 60,
          "start_beat": 19.5,
          "duration": 0.25,
          "velocity": 60
        },
        {
          "pitch": 56,
          "start_beat": 26.0,
          "duration": 0.25,
          "velocity": 58
        },
        {
          "pitch": 54,
          "start_beat": 32.0,
          "duration": 0.125,
          "velocity": 52
        },
        {
          "pitch": 54,
          "start_beat": 32.25,
          "duration": 0.125,
          "velocity": 48
        },
        {
          "pitch": 54,
          "start_beat": 32.5,
          "duration": 0.125,
          "velocity": 50
        },
        {
          "pitch": 54,
          "start_beat": 32.75,
          "duration": 0.125,
          "velocity": 48
        },
        {
          "pitch": 54,
          "start_beat": 33.0,
          "duration": 0.125,
          "velocity": 52
        },
        {
          "pitch": 54,
          "start_beat": 33.25,
          "duration": 0.125,
          "velocity": 48
        },
        {
          "pitch": 54,
          "start_beat": 33.5,
          "duration": 0.125,
          "velocity": 50
        },
        {
          "pitch": 54,
          "start_beat": 33.75,
          "duration": 0.125,
          "velocity": 48
        },
        {
          "pitch": 54,
          "start_beat": 34.0,
          "duration": 0.125,
          "velocity": 54
        },
        {
          "pitch": 54,
          "start_beat": 34.25,
          "duration": 0.125,
          "velocity": 50
        },
        {
          "pitch": 54,
          "start_beat": 34.5,
          "duration": 0.125,
          "velocity": 52
        },
        {
          "pitch": 54,
          "start_beat": 34.75,
          "duration": 0.125,
          "velocity": 50
        },
        {
          "pitch": 54,
          "start_beat": 35.0,
          "duration": 0.125,
          "velocity": 54
        },
        {
          "pitch": 54,
          "start_beat": 35.25,
          "duration": 0.125,
          "velocity": 50
        },
        {
          "pitch": 54,
          "start_beat": 35.5,
          "duration": 0.125,
          "velocity": 52
        },
        {
          "pitch": 54,
          "start_beat": 35.75,
          "duration": 0.125,
          "velocity": 50
        },
        {
          "pitch": 54,
          "start_beat": 36.0,
          "duration": 0.125,
          "velocity": 56
        },
        {
          "pitch": 54,
          "start_beat": 36.25,
          "duration": 0.125,
          "velocity": 52
        },
        {
          "pitch": 54,
          "start_beat": 36.5,
          "duration": 0.125,
          "velocity": 54
        },
        {
          "pitch": 54,
          "start_beat": 36.75,
          "duration": 0.125,
          "velocity": 52
        },
        {
          "pitch": 54,
          "start_beat": 37.0,
          "duration": 0.125,
          "velocity": 56
        },
        {
          "pitch": 54,
          "start_beat": 37.25,
          "duration": 0.125,
          "velocity": 52
        },
        {
          "pitch": 54,
          "start_beat": 37.5,
          "duration": 0.125,
          "velocity": 54
        },
        {
          "pitch": 54,
          "start_beat": 37.75,
          "duration": 0.125,
          "velocity": 52
        },
        {
          "pitch": 54,
          "start_beat": 38.0,
          "duration": 0.125,
          "velocity": 56
        },
        {
          "pitch": 54,
          "start_beat": 38.25,
          "duration": 0.125,
          "velocity": 52
        },
        {
          "pitch": 54,
          "start_beat": 38.5,
          "duration": 0.125,
          "velocity": 54
        },
        {
          "pitch": 54,
          "start_beat": 38.75,
          "duration": 0.125,
          "velocity": 52
        },
        {
          "pitch": 54,
          "start_beat": 39.0,
          "duration": 0.125,
          "velocity": 56
        },
        {
          "pitch": 54,
          "start_beat": 39.25,
          "duration": 0.125,
          "velocity": 52
        },
        {
          "pitch": 54,
          "start_beat": 39.5,
          "duration": 0.125,
          "velocity": 54
        },
        {
          "pitch": 54,
          "start_beat": 39.75,
          "duration": 0.125,
          "velocity": 52
        },
        {
          "pitch": 58,
          "start_beat": 42.0,
          "duration": 0.25,
          "velocity": 60
        },
        {
          "pitch": 50,
          "start_beat": 44.5,
          "duration": 0.25,
          "velocity": 58
        },
        {
          "pitch": 54,
          "start_beat": 48.0,
          "duration": 0.125,
          "velocity": 58
        },
        {
          "pitch": 54,
          "start_beat": 48.25,
          "duration": 0.125,
          "velocity": 55
        },
        {
          "pitch": 54,
          "start_beat": 48.5,
          "duration": 0.125,
          "velocity": 56
        },
        {
          "pitch": 54,
          "start_beat": 48.75,
          "duration": 0.125,
          "velocity": 55
        },
        {
          "pitch": 54,
          "start_beat": 49.0,
          "duration": 0.125,
          "velocity": 58
        },
        {
          "pitch": 54,
          "start_beat": 49.25,
          "duration": 0.125,
          "velocity": 55
        },
        {
          "pitch": 54,
          "start_beat": 49.5,
          "duration": 0.125,
          "velocity": 56
        },
        {
          "pitch": 54,
          "start_beat": 49.75,
          "duration": 0.125,
          "velocity": 55
        },
        {
          "pitch": 54,
          "start_beat": 50.0,
          "duration": 0.125,
          "velocity": 60
        },
        {
          "pitch": 54,
          "start_beat": 50.25,
          "duration": 0.125,
          "velocity": 56
        },
        {
          "pitch": 54,
          "start_beat": 50.5,
          "duration": 0.125,
          "velocity": 58
        },
        {
          "pitch": 54,
          "start_beat": 50.75,
          "duration": 0.125,
          "velocity": 56
        },
        {
          "pitch": 54,
          "start_beat": 51.0,
          "duration": 0.125,
          "velocity": 60
        },
        {
          "pitch": 54,
          "start_beat": 51.25,
          "duration": 0.125,
          "velocity": 56
        },
        {
          "pitch": 54,
          "start_beat": 51.5,
          "duration": 0.125,
          "velocity": 58
        },
        {
          "pitch": 54,
          "start_beat": 51.75,
          "duration": 0.125,
          "velocity": 56
        },
        {
          "pitch": 54,
          "start_beat": 52.0,
          "duration": 0.125,
          "velocity": 62
        },
        {
          "pitch": 54,
          "start_beat": 52.25,
          "duration": 0.125,
          "velocity": 58
        },
        {
          "pitch": 54,
          "start_beat": 52.5,
          "duration": 0.125,
          "velocity": 60
        },
        {
          "pitch": 54,
          "start_beat": 52.75,
          "duration": 0.125,
          "velocity": 58
        },
        {
          "pitch": 54,
          "start_beat": 53.0,
          "duration": 0.125,
          "velocity": 62
        },
        {
          "pitch": 54,
          "start_beat": 53.25,
          "duration": 0.125,
          "velocity": 58
        },
        {
          "pitch": 54,
          "start_beat": 53.5,
          "duration": 0.125,
          "velocity": 60
        },
        {
          "pitch": 54,
          "start_beat": 53.75,
          "duration": 0.125,
          "velocity": 58
        },
        {
          "pitch": 54,
          "start_beat": 54.0,
          "duration": 0.125,
          "velocity": 62
        },
        {
          "pitch": 54,
          "start_beat": 54.25,
          "duration": 0.125,
          "velocity": 58
        },
        {
          "pitch": 54,
          "start_beat": 54.5,
          "duration": 0.125,
          "velocity": 60
        },
        {
          "pitch": 54,
          "start_beat": 54.75,
          "duration": 0.125,
          "velocity": 58
        },
        {
          "pitch": 54,
          "start_beat": 55.0,
          "duration": 0.125,
          "velocity": 62
        },
        {
          "pitch": 54,
          "start_beat": 55.25,
          "duration": 0.125,
          "velocity": 58
        },
        {
          "pitch": 54,
          "start_beat": 55.5,
          "duration": 0.125,
          "velocity": 60
        },
        {
          "pitch": 54,
          "start_beat": 55.75,
          "duration": 0.125,
          "velocity": 58
        },
        {
          "pitch": 54,
          "start_beat": 56.0,
          "duration": 0.125,
          "velocity": 64
        },
        {
          "pitch": 54,
          "start_beat": 56.25,
          "duration": 0.125,
          "velocity": 60
        },
        {
          "pitch": 54,
          "start_beat": 56.5,
          "duration": 0.125,
          "velocity": 62
        },
        {
          "pitch": 54,
          "start_beat": 56.75,
          "duration": 0.125,
          "velocity": 60
        },
        {
          "pitch": 54,
          "start_beat": 57.0,
          "duration": 0.125,
          "velocity": 64
        },
        {
          "pitch": 54,
          "start_beat": 57.25,
          "duration": 0.125,
          "velocity": 60
        },
        {
          "pitch": 54,
          "start_beat": 57.5,
          "duration": 0.125,
          "velocity": 62
        },
        {
          "pitch": 54,
          "start_beat": 57.75,
          "duration": 0.125,
          "velocity": 60
        },
        {
          "pitch": 54,
          "start_beat": 58.0,
          "duration": 0.125,
          "velocity": 64
        },
        {
          "pitch": 54,
          "start_beat": 58.25,
          "duration": 0.125,
          "velocity": 60
        },
        {
          "pitch": 54,
          "start_beat": 58.5,
          "duration": 0.125,
          "velocity": 62
        },
        {
          "pitch": 54,
          "start_beat": 58.75,
          "duration": 0.125,
          "velocity": 60
        },
        {
          "pitch": 54,
          "start_beat": 59.0,
          "duration": 0.125,
          "velocity": 64
        },
        {
          "pitch": 54,
          "start_beat": 59.25,
          "duration": 0.125,
          "velocity": 60
        },
        {
          "pitch": 54,
          "start_beat": 59.5,
          "duration": 0.125,
          "velocity": 62
        },
        {
          "pitch": 54,
          "start_beat": 59.75,
          "duration": 0.125,
          "velocity": 60
        },
        {
          "pitch": 54,
          "start_beat": 60.0,
          "duration": 0.125,
          "velocity": 62
        },
        {
          "pitch": 54,
          "start_beat": 60.25,
          "duration": 0.125,
          "velocity": 58
        },
        {
          "pitch": 54,
          "start_beat": 60.5,
          "duration": 0.125,
          "velocity": 60
        },
        {
          "pitch": 54,
          "start_beat": 60.75,
          "duration": 0.125,
          "velocity": 58
        },
        {
          "pitch": 54,
          "start_beat": 61.0,
          "duration": 0.125,
          "velocity": 60
        },
        {
          "pitch": 54,
          "start_beat": 61.5,
          "duration": 0.125,
          "velocity": 56
        },
        {
          "pitch": 54,
          "start_beat": 62.0,
          "duration": 0.125,
          "velocity": 56
        },
        {
          "pitch": 54,
          "start_beat": 62.5,
          "duration": 0.125,
          "velocity": 52
        }
      ]
    },
    {
      "track_index": 5,
      "track_name": "Bass",
      "notes": [
        {
          "pitch": 33,
          "start_beat": 0.0,
          "duration": 8.0,
          "velocity": 70
        },
        {
          "pitch": 33,
          "start_beat": 8.0,
          "duration": 8.0,
          "velocity": 74
        },
        {
          "pitch": 29,
          "start_beat": 16.0,
          "duration": 8.0,
          "velocity": 76
        },
        {
          "pitch": 29,
          "start_beat": 24.0,
          "duration": 8.0,
          "velocity": 78
        },
        {
          "pitch": 36,
          "start_beat": 32.0,
          "duration": 8.0,
          "velocity": 80
        },
        {
          "pitch": 36,
          "start_beat": 40.0,
          "duration": 8.0,
          "velocity": 82
        },
        {
          "pitch": 31,
          "start_beat": 48.0,
          "duration": 8.0,
          "velocity": 84
        },
        {
          "pitch": 31,
          "start_beat": 56.0,
          "duration": 8.0,
          "velocity": 80
        }
      ]
    },
    {
      "track_index": 6,
      "track_name": "Chord/Rhodes",
      "notes": [
        {
          "pitch": 57,
          "start_beat": 0.0,
          "duration": 16.0,
          "velocity": 55
        },
        {
          "pitch": 60,
          "start_beat": 0.0,
          "duration": 16.0,
          "velocity": 52
        },
        {
          "pitch": 64,
          "start_beat": 0.0,
          "duration": 16.0,
          "velocity": 50
        },
        {
          "pitch": 67,
          "start_beat": 0.0,
          "duration": 16.0,
          "velocity": 48
        },
        {
          "pitch": 71,
          "start_beat": 0.0,
          "duration": 16.0,
          "velocity": 46
        },
        {
          "pitch": 53,
          "start_beat": 16.0,
          "duration": 16.0,
          "velocity": 60
        },
        {
          "pitch": 60,
          "start_beat": 16.0,
          "duration": 16.0,
          "velocity": 55
        },
        {
          "pitch": 64,
          "start_beat": 16.0,
          "duration": 16.0,
          "velocity": 52
        },
        {
          "pitch": 65,
          "start_beat": 16.0,
          "duration": 16.0,
          "velocity": 52
        },
        {
          "pitch": 72,
          "start_beat": 16.0,
          "duration": 16.0,
          "velocity": 48
        },
        {
          "pitch": 60,
          "start_beat": 32.0,
          "duration": 16.0,
          "velocity": 65
        },
        {
          "pitch": 64,
          "start_beat": 32.0,
          "duration": 16.0,
          "velocity": 58
        },
        {
          "pitch": 67,
          "start_beat": 32.0,
          "duration": 16.0,
          "velocity": 55
        },
        {
          "pitch": 71,
          "start_beat": 32.0,
          "duration": 16.0,
          "velocity": 52
        },
        {
          "pitch": 74,
          "start_beat": 32.0,
          "duration": 16.0,
          "velocity": 50
        },
        {
          "pitch": 55,
          "start_beat": 48.0,
          "duration": 16.0,
          "velocity": 68
        },
        {
          "pitch": 62,
          "start_beat": 48.0,
          "duration": 16.0,
          "velocity": 60
        },
        {
          "pitch": 67,
          "start_beat": 48.0,
          "duration": 16.0,
          "velocity": 58
        },
        {
          "pitch": 71,
          "start_beat": 48.0,
          "duration": 16.0,
          "velocity": 55
        },
        {
          "pitch": 74,
          "start_beat": 48.0,
          "duration": 16.0,
          "velocity": 52
        }
      ]
    },
    {
      "track_index": 7,
      "track_name": "Lead",
      "notes": [
        {
          "pitch": 72,
          "start_beat": 4.0,
          "duration": 6.0,
          "velocity": 55
        },
        {
          "pitch": 76,
          "start_beat": 12.0,
          "duration": 4.0,
          "velocity": 58
        },
        {
          "pitch": 77,
          "start_beat": 20.0,
          "duration": 6.0,
          "velocity": 62
        },
        {
          "pitch": 72,
          "start_beat": 28.0,
          "duration": 4.0,
          "velocity": 60
        },
        {
          "pitch": 79,
          "start_beat": 36.0,
          "duration": 6.0,
          "velocity": 68
        },
        {
          "pitch": 76,
          "start_beat": 44.0,
          "duration": 4.0,
          "velocity": 65
        },
        {
          "pitch": 74,
          "start_beat": 52.0,
          "duration": 6.0,
          "velocity": 70
        },
        {
          "pitch": 71,
          "start_beat": 60.0,
          "duration": 4.0,
          "velocity": 60
        }
      ]
    },
    {
      "track_index": 8,
      "track_name": "Pad/Texture",
      "notes": [
        {
          "pitch": 67,
          "start_beat": 0.0,
          "duration": 16.0,
          "velocity": 40
        },
        {
          "pitch": 71,
          "start_beat": 0.0,
          "duration": 16.0,
          "velocity": 38
        },
        {
          "pitch": 76,
          "start_beat": 0.0,
          "duration": 16.0,
          "velocity": 36
        },
        {
          "pitch": 65,
          "start_beat": 16.0,
          "duration": 16.0,
          "velocity": 50
        },
        {
          "pitch": 72,
          "start_beat": 16.0,
          "duration": 16.0,
          "velocity": 45
        },
        {
          "pitch": 76,
          "start_beat": 16.0,
          "duration": 16.0,
          "velocity": 42
        },
        {
          "pitch": 67,
          "start_beat": 32.0,
          "duration": 16.0,
          "velocity": 60
        },
        {
          "pitch": 74,
          "start_beat": 32.0,
          "duration": 16.0,
          "velocity": 55
        },
        {
          "pitch": 79,
          "start_beat": 32.0,
          "duration": 16.0,
          "velocity": 50
        },
        {
          "pitch": 67,
          "start_beat": 48.0,
          "duration": 16.0,
          "velocity": 65
        },
        {
          "pitch": 74,
          "start_beat": 48.0,
          "duration": 16.0,
          "velocity": 58
        },
        {
          "pitch": 78,
          "start_beat": 48.0,
          "duration": 16.0,
          "velocity": 54
        }
      ]
    },
    {
      "track_index": 9,
      "track_name": "FX/Riser",
      "notes": [
        {
          "pitch": 72,
          "start_beat": 14.0,
          "duration": 2.0,
          "velocity": 50
        },
        {
          "pitch": 76,
          "start_beat": 30.0,
          "duration": 2.0,
          "velocity": 58
        },
        {
          "pitch": 84,
          "start_beat": 46.0,
          "duration": 2.0,
          "velocity": 68
        },
        {
          "pitch": 88,
          "start_beat": 62.0,
          "duration": 2.0,
          "velocity": 55
        }
      ]
    }
  ]
}