{
  "meta": {
    "bpm": 124,
    "bars": 32,
    "key": "A minor",
    "style": "ambient_pad"
  },
  "tracks": [
    {
      "track_index": 0,
      "track_name": "Kick",
      "notes": [
        {
          "pitch": 36,
          "start_beat": 0.0,
          "duration": 0.5,
          "velocity": 90
        },
        {
          "pitch": 36,
          "start_beat": 16.0,
          "duration": 0.5,
          "velocity": 88
        },
        {
          "pitch": 36,
          "start_beat": 32.0,
          "duration": 0.5,
          "velocity": 92
        },
        {
          "pitch": 36,
          "start_beat": 48.0,
          "duration": 0.5,
          "velocity": 85
        },
        {
          "pitch": 36,
          "start_beat": 64.0,
          "duration": 0.5,
          "velocity": 95
        },
        {
          "pitch": 36,
          "start_beat": 80.0,
          "duration": 0.5,
          "velocity": 90
        },
        {
          "pitch": 36,
          "start_beat": 96.0,
          "duration": 0.5,
          "velocity": 88
        },
        {
          "pitch": 36,
          "start_beat": 112.0,
          "duration": 0.5,
          "velocity": 70
        }
      ]
    },
    {
      "track_index": 1,
      "track_name": "Snare/Clap",
      "notes": [
        {
          "pitch": 40,
          "start_beat": 36.0,
          "duration": 0.25,
          "velocity": 55
        },
        {
          "pitch": 40,
          "start_beat": 68.0,
          "duration": 0.25,
          "velocity": 60
        },
        {
          "pitch": 40,
          "start_beat": 100.0,
          "duration": 0.25,
          "velocity": 50
        }
      ]
    },
    {
      "track_index": 2,
      "track_name": "Closed Hat",
      "notes": [
        {
          "pitch": 42,
          "start_beat": 18.5,
          "duration": 0.125,
          "velocity": 45
        },
        {
          "pitch": 42,
          "start_beat": 22.5,
          "duration": 0.125,
          "velocity": 50
        },
        {
          "pitch": 42,
          "start_beat": 26.5,
          "duration": 0.125,
          "velocity": 45
        },
        {
          "pitch": 42,
          "start_beat": 50.5,
          "duration": 0.125,
          "velocity": 50
        },
        {
          "pitch": 42,
          "start_beat": 54.5,
          "duration": 0.125,
          "velocity": 55
        },
        {
          "pitch": 42,
          "start_beat": 58.5,
          "duration": 0.125,
          "velocity": 50
        },
        {
          "pitch": 42,
          "start_beat": 62.5,
          "duration": 0.125,
          "velocity": 55
        },
        {
          "pitch": 42,
          "start_beat": 66.5,
          "duration": 0.125,
          "velocity": 60
        },
        {
          "pitch": 42,
          "start_beat": 70.5,
          "duration": 0.125,
          "velocity": 55
        },
        {
          "pitch": 42,
          "start_beat": 74.5,
          "duration": 0.125,
          "velocity": 60
        },
        {
          "pitch": 42,
          "start_beat": 78.5,
          "duration": 0.125,
          "velocity": 55
        },
        {
          "pitch": 42,
          "start_beat": 82.5,
          "duration": 0.125,
          "velocity": 60
        },
        {
          "pitch": 42,
          "start_beat": 86.5,
          "duration": 0.125,
          "velocity": 55
        },
        {
          "pitch": 42,
          "start_beat": 90.5,
          "duration": 0.125,
          "velocity": 60
        },
        {
          "pitch": 42,
          "start_beat": 94.5,
          "duration": 0.125,
          "velocity": 55
        }
      ]
    },
    {
      "track_index": 3,
      "track_name": "Open Hat",
      "notes": [
        {
          "pitch": 46,
          "start_beat": 30.0,
          "duration": 0.5,
          "velocity": 55
        },
        {
          "pitch": 46,
          "start_beat": 62.0,
          "duration": 0.5,
          "velocity": 60
        },
        {
          "pitch": 46,
          "start_beat": 94.0,
          "duration": 0.5,
          "velocity": 55
        }
      ]
    },
    {
      "track_index": 4,
      "track_name": "Percussion",
      "notes": [
        {
          "pitch": 54,
          "start_beat": 8.0,
          "duration": 0.25,
          "velocity": 45
        },
        {
          "pitch": 56,
          "start_beat": 12.75,
          "duration": 0.25,
          "velocity": 50
        },
        {
          "pitch": 54,
          "start_beat": 24.0,
          "duration": 0.25,
          "velocity": 55
        },
        {
          "pitch": 58,
          "start_beat": 28.75,
          "duration": 0.25,
          "velocity": 60
        },
        {
          "pitch": 56,
          "start_beat": 40.0,
          "duration": 0.25,
          "velocity": 60
        },
        {
          "pitch": 54,
          "start_beat": 44.75,
          "duration": 0.25,
          "velocity": 55
        },
        {
          "pitch": 58,
          "start_beat": 52.5,
          "duration": 0.25,
          "velocity": 65
        },
        {
          "pitch": 56,
          "start_beat": 56.0,
          "duration": 0.25,
          "velocity": 60
        },
        {
          "pitch": 54,
          "start_beat": 60.75,
          "duration": 0.25,
          "velocity": 65
        },
        {
          "pitch": 56,
          "start_beat": 72.0,
          "duration": 0.25,
          "velocity": 70
        },
        {
          "pitch": 58,
          "start_beat": 76.5,
          "duration": 0.25,
          "velocity": 65
        },
        {
          "pitch": 54,
          "start_beat": 84.0,
          "duration": 0.25,
          "velocity": 65
        },
        {
          "pitch": 56,
          "start_beat": 88.75,
          "duration": 0.25,
          "velocity": 60
        },
        {
          "pitch": 58,
          "start_beat": 92.5,
          "duration": 0.25,
          "velocity": 70
        },
        {
          "pitch": 54,
          "start_beat": 104.0,
          "duration": 0.25,
          "velocity": 55
        },
        {
          "pitch": 56,
          "start_beat": 108.75,
          "duration": 0.25,
          "velocity": 50
        },
        {
          "pitch": 58,
          "start_beat": 116.0,
          "duration": 0.25,
          "velocity": 45
        }
      ]
    },
    {
      "track_index": 5,
      "track_name": "Bass",
      "notes": [
        {
          "pitch": 33,
          "start_beat": 0.0,
          "duration": 8.0,
          "velocity": 70
        },
        {
          "pitch": 33,
          "start_beat": 8.0,
          "duration": 8.0,
          "velocity": 75
        },
        {
          "pitch": 29,
          "start_beat": 16.0,
          "duration": 8.0,
          "velocity": 72
        },
        {
          "pitch": 29,
          "start_beat": 24.0,
          "duration": 8.0,
          "velocity": 78
        },
        {
          "pitch": 36,
          "start_beat": 32.0,
          "duration": 8.0,
          "velocity": 75
        },
        {
          "pitch": 36,
          "start_beat": 40.0,
          "duration": 8.0,
          "velocity": 80
        },
        {
          "pitch": 31,
          "start_beat": 48.0,
          "duration": 8.0,
          "velocity": 78
        },
        {
          "pitch": 31,
          "start_beat": 56.0,
          "duration": 8.0,
          "velocity": 82
        },
        {
          "pitch": 33,
          "start_beat": 64.0,
          "duration": 16.0,
          "velocity": 85
        },
        {
          "pitch": 29,
          "start_beat": 80.0,
          "duration": 16.0,
          "velocity": 82
        },
        {
          "pitch": 36,
          "start_beat": 96.0,
          "duration": 16.0,
          "velocity": 75
        },
        {
          "pitch": 31,
          "start_beat": 112.0,
          "duration": 16.0,
          "velocity": 65
        }
      ]
    },
    {
      "track_index": 6,
      "track_name": "Chord/Rhodes",
      "notes": [
        {
          "pitch": 67,
          "start_beat": 0.0,
          "duration": 8.0,
          "velocity": 55
        },
        {
          "pitch": 72,
          "start_beat": 0.0,
          "duration": 8.0,
          "velocity": 50
        },
        {
          "pitch": 74,
          "start_beat": 0.0,
          "duration": 8.0,
          "velocity": 48
        },
        {
          "pitch": 67,
          "start_beat": 8.0,
          "duration": 8.0,
          "velocity": 65
        },
        {
          "pitch": 72,
          "start_beat": 8.0,
          "duration": 8.0,
          "velocity": 60
        },
        {
          "pitch": 74,
          "start_beat": 8.0,
          "duration": 8.0,
          "velocity": 58
        },
        {
          "pitch": 65,
          "start_beat": 16.0,
          "duration": 8.0,
          "velocity": 60
        },
        {
          "pitch": 69,
          "start_beat": 16.0,
          "duration": 8.0,
          "velocity": 55
        },
        {
          "pitch": 72,
          "start_beat": 16.0,
          "duration": 8.0,
          "velocity": 52
        },
        {
          "pitch": 65,
          "start_beat": 24.0,
          "duration": 8.0,
          "velocity": 70
        },
        {
          "pitch": 69,
          "start_beat": 24.0,
          "duration": 8.0,
          "velocity": 65
        },
        {
          "pitch": 72,
          "start_beat": 24.0,
          "duration": 8.0,
          "velocity": 62
        },
        {
          "pitch": 64,
          "start_beat": 32.0,
          "duration": 8.0,
          "velocity": 65
        },
        {
          "pitch": 67,
          "start_beat": 32.0,
          "duration": 8.0,
          "velocity": 60
        },
        {
          "pitch": 71,
          "start_beat": 32.0,
          "duration": 8.0,
          "velocity": 58
        },
        {
          "pitch": 64,
          "start_beat": 40.0,
          "duration": 8.0,
          "velocity": 75
        },
        {
          "pitch": 67,
          "start_beat": 40.0,
          "duration": 8.0,
          "velocity": 70
        },
        {
          "pitch": 71,
          "start_beat": 40.0,
          "duration": 8.0,
          "velocity": 68
        },
        {
          "pitch": 67,
          "start_beat": 48.0,
          "duration": 8.0,
          "velocity": 70
        },
        {
          "pitch": 71,
          "start_beat": 48.0,
          "duration": 8.0,
          "velocity": 65
        },
        {
          "pitch": 74,
          "start_beat": 48.0,
          "duration": 8.0,
          "velocity": 62
        },
        {
          "pitch": 67,
          "start_beat": 56.0,
          "duration": 8.0,
          "velocity": 78
        },
        {
          "pitch": 71,
          "start_beat": 56.0,
          "duration": 8.0,
          "velocity": 72
        },
        {
          "pitch": 74,
          "start_beat": 56.0,
          "duration": 8.0,
          "velocity": 70
        },
        {
          "pitch": 67,
          "start_beat": 64.0,
          "duration": 16.0,
          "velocity": 80
        },
        {
          "pitch": 72,
          "start_beat": 64.0,
          "duration": 16.0,
          "velocity": 75
        },
        {
          "pitch": 74,
          "start_beat": 64.0,
          "duration": 16.0,
          "velocity": 72
        },
        {
          "pitch": 79,
          "start_beat": 64.0,
          "duration": 16.0,
          "velocity": 65
        },
        {
          "pitch": 65,
          "start_beat": 80.0,
          "duration": 16.0,
          "velocity": 78
        },
        {
          "pitch": 69,
          "start_beat": 80.0,
          "duration": 16.0,
          "velocity": 72
        },
        {
          "pitch": 72,
          "start_beat": 80.0,
          "duration": 16.0,
          "velocity": 70
        },
        {
          "pitch": 76,
          "start_beat": 80.0,
          "duration": 16.0,
          "velocity": 62
        },
        {
          "pitch": 64,
          "start_beat": 96.0,
          "duration": 16.0,
          "velocity": 72
        },
        {
          "pitch": 67,
          "start_beat": 96.0,
          "duration": 16.0,
          "velocity": 68
        },
        {
          "pitch": 71,
          "start_beat": 96.0,
          "duration": 16.0,
          "velocity": 65
        },
        {
          "pitch": 67,
          "start_beat": 112.0,
          "duration": 16.0,
          "velocity": 60
        },
        {
          "pitch": 71,
          "start_beat": 112.0,
          "duration": 16.0,
          "velocity": 55
        },
        {
          "pitch": 74,
          "start_beat": 112.0,
          "duration": 16.0,
          "velocity": 50
        }
      ]
    },
    {
      "track_index": 7,
      "track_name": "Lead",
      "notes": [
        {
          "pitch": 76,
          "start_beat": 18.0,
          "duration": 6.0,
          "velocity": 55
        },
        {
          "pitch": 72,
          "start_beat": 26.0,
          "duration": 4.0,
          "velocity": 60
        },
        {
          "pitch": 74,
          "start_beat": 36.0,
          "duration": 6.0,
          "velocity": 65
        },
        {
          "pitch": 71,
          "start_beat": 44.0,
          "duration": 3.0,
          "velocity": 62
        },
        {
          "pitch": 79,
          "start_beat": 52.0,
          "duration": 6.0,
          "velocity": 70
        },
        {
          "pitch": 76,
          "start_beat": 60.0,
          "duration": 3.0,
          "velocity": 68
        },
        {
          "pitch": 81,
          "start_beat": 68.0,
          "duration": 8.0,
          "velocity": 75
        },
        {
          "pitch": 79,
          "start_beat": 78.0,
          "duration": 4.0,
          "velocity": 72
        },
        {
          "pitch": 77,
          "start_beat": 84.0,
          "duration": 8.0,
          "velocity": 70
        },
        {
          "pitch": 76,
          "start_beat": 100.0,
          "duration": 6.0,
          "velocity": 65
        },
        {
          "pitch": 72,
          "start_beat": 108.0,
          "duration": 8.0,
          "velocity": 55
        },
        {
          "pitch": 71,
          "start_beat": 118.0,
          "duration": 10.0,
          "velocity": 45
        }
      ]
    },
    {
      "track_index": 8,
      "track_name": "Pad/Texture",
      "notes": [
        {
          "pitch": 60,
          "start_beat": 0.0,
          "duration": 16.0,
          "velocity": 50
        },
        {
          "pitch": 64,
          "start_beat": 0.0,
          "duration": 16.0,
          "velocity": 45
        },
        {
          "pitch": 69,
          "start_beat": 0.0,
          "duration": 16.0,
          "velocity": 48
        },
        {
          "pitch": 57,
          "start_beat": 16.0,
          "duration": 16.0,
          "velocity": 55
        },
        {
          "pitch": 60,
          "start_beat": 16.0,
          "duration": 16.0,
          "velocity": 50
        },
        {
          "pitch": 64,
          "start_beat": 16.0,
          "duration": 16.0,
          "velocity": 52
        },
        {
          "pitch": 55,
          "start_beat": 32.0,
          "duration": 16.0,
          "velocity": 60
        },
        {
          "pitch": 59,
          "start_beat": 32.0,
          "duration": 16.0,
          "velocity": 55
        },
        {
          "pitch": 64,
          "start_beat": 32.0,
          "duration": 16.0,
          "velocity": 58
        },
        {
          "pitch": 59,
          "start_beat": 48.0,
          "duration": 16.0,
          "velocity": 65
        },
        {
          "pitch": 62,
          "start_beat": 48.0,
          "duration": 16.0,
          "velocity": 60
        },
        {
          "pitch": 67,
          "start_beat": 48.0,
          "duration": 16.0,
          "velocity": 62
        },
        {
          "pitch": 60,
          "start_beat": 64.0,
          "duration": 16.0,
          "velocity": 75
        },
        {
          "pitch": 64,
          "start_beat": 64.0,
          "duration": 16.0,
          "velocity": 70
        },
        {
          "pitch": 69,
          "start_beat": 64.0,
          "duration": 16.0,
          "velocity": 72
        },
        {
          "pitch": 57,
          "start_beat": 80.0,
          "duration": 16.0,
          "velocity": 72
        },
        {
          "pitch": 60,
          "start_beat": 80.0,
          "duration": 16.0,
          "velocity": 68
        },
        {
          "pitch": 64,
          "start_beat": 80.0,
          "duration": 16.0,
          "velocity": 70
        },
        {
          "pitch": 55,
          "start_beat": 96.0,
          "duration": 16.0,
          "velocity": 65
        },
        {
          "pitch": 59,
          "start_beat": 96.0,
          "duration": 16.0,
          "velocity": 60
        },
        {
          "pitch": 64,
          "start_beat": 96.0,
          "duration": 16.0,
          "velocity": 62
        },
        {
          "pitch": 59,
          "start_beat": 112.0,
          "duration": 16.0,
          "velocity": 50
        },
        {
          "pitch": 62,
          "start_beat": 112.0,
          "duration": 16.0,
          "velocity": 45
        },
        {
          "pitch": 67,
          "start_beat": 112.0,
          "duration": 16.0,
          "velocity": 48
        }
      ]
    },
    {
      "track_index": 9,
      "track_name": "FX/Riser",
      "notes": [
        {
          "pitch": 84,
          "start_beat": 14.0,
          "duration": 2.0,
          "velocity": 40
        },
        {
          "pitch": 84,
          "start_beat": 30.0,
          "duration": 2.0,
          "velocity": 50
        },
        {
          "pitch": 88,
          "start_beat": 46.0,
          "duration": 2.0,
          "velocity": 55
        },
        {
          "pitch": 91,
          "start_beat": 62.0,
          "duration": 2.0,
          "velocity": 70
        },
        {
          "pitch": 84,
          "start_beat": 78.0,
          "duration": 2.0,
          "velocity": 60
        },
        {
          "pitch": 88,
          "start_beat": 94.0,
          "duration": 2.0,
          "velocity": 55
        },
        {
          "pitch": 76,
          "start_beat": 110.0,
          "duration": 4.0,
          "velocity": 45
        },
        {
          "pitch": 72,
          "start_beat": 120.0,
          "duration": 8.0,
          "velocity": 35
        }
      ]
    }
  ]
}