{
  "meta": {
    "bpm": 134,
    "bars": 16,
    "key": "F# minor",
    "style": "ambient_pad"
  },
  "tracks": [
    {
      "track_index": 0,
      "track_name": "Kick",
      "notes": [
        {
          "pitch": 36,
          "start_beat": 0.0,
          "duration": 0.5,
          "velocity": 100
        },
        {
          "pitch": 36,
          "start_beat": 16.0,
          "duration": 0.5,
          "velocity": 95
        },
        {
          "pitch": 36,
          "start_beat": 32.0,
          "duration": 0.5,
          "velocity": 95
        },
        {
          "pitch": 36,
          "start_beat": 48.0,
          "duration": 0.5,
          "velocity": 90
        }
      ]
    },
    {
      "track_index": 1,
      "track_name": "Snare/Clap",
      "notes": [
        {
          "pitch": 40,
          "start_beat": 60.0,
          "duration": 0.25,
          "velocity": 55
        },
        {
          "pitch": 40,
          "start_beat": 62.0,
          "duration": 0.25,
          "velocity": 60
        }
      ]
    },
    {
      "track_index": 2,
      "track_name": "Closed Hat",
      "notes": []
    },
    {
      "track_index": 3,
      "track_name": "Open Hat",
      "notes": []
    },
    {
      "track_index": 4,
      "track_name": "Percussion",
      "notes": [
        {
          "pitch": 54,
          "start_beat": 14.5,
          "duration": 0.25,
          "velocity": 50
        },
        {
          "pitch": 56,
          "start_beat": 30.5,
          "duration": 0.25,
          "velocity": 55
        },
        {
          "pitch": 54,
          "start_beat": 46.5,
          "duration": 0.25,
          "velocity": 55
        },
        {
          "pitch": 56,
          "start_beat": 58.0,
          "duration": 0.25,
          "velocity": 50
        }
      ]
    },
    {
      "track_index": 5,
      "track_name": "Bass",
      "notes": [
        {
          "pitch": 30,
          "start_beat": 0.0,
          "duration": 16.0,
          "velocity": 70
        },
        {
          "pitch": 26,
          "start_beat": 16.0,
          "duration": 16.0,
          "velocity": 72
        },
        {
          "pitch": 33,
          "start_beat": 32.0,
          "duration": 16.0,
          "velocity": 74
        },
        {
          "pitch": 37,
          "start_beat": 48.0,
          "duration": 15.5,
          "velocity": 70
        }
      ]
    },
    {
      "track_index": 6,
      "track_name": "Chord/Rhodes",
      "notes": [
        {
          "pitch": 66,
          "start_beat": 0.0,
          "duration": 16.0,
          "velocity": 55
        },
        {
          "pitch": 69,
          "start_beat": 0.0,
          "duration": 16.0,
          "velocity": 52
        },
        {
          "pitch": 73,
          "start_beat": 0.0,
          "duration": 16.0,
          "velocity": 50
        },
        {
          "pitch": 76,
          "start_beat": 0.0,
          "duration": 16.0,
          "velocity": 48
        },
        {
          "pitch": 62,
          "start_beat": 16.0,
          "duration": 16.0,
          "velocity": 58
        },
        {
          "pitch": 66,
          "start_beat": 16.0,
          "duration": 16.0,
          "velocity": 54
        },
        {
          "pitch": 69,
          "start_beat": 16.0,
          "duration": 16.0,
          "velocity": 52
        },
        {
          "pitch": 73,
          "start_beat": 16.0,
          "duration": 16.0,
          "velocity": 50
        },
        {
          "pitch": 64,
          "start_beat": 32.0,
          "duration": 16.0,
          "velocity": 60
        },
        {
          "pitch": 68,
          "start_beat": 32.0,
          "duration": 16.0,
          "velocity": 56
        },
        {
          "pitch": 71,
          "start_beat": 32.0,
          "duration": 16.0,
          "velocity": 54
        },
        {
          "pitch": 75,
          "start_beat": 32.0,
          "duration": 16.0,
          "velocity": 52
        },
        {
          "pitch": 61,
          "start_beat": 48.0,
          "duration": 15.5,
          "velocity": 58
        },
        {
          "pitch": 64,
          "start_beat": 48.0,
          "duration": 15.5,
          "velocity": 54
        },
        {
          "pitch": 68,
          "start_beat": 48.0,
          "duration": 15.5,
          "velocity": 52
        },
        {
          "pitch": 71,
          "start_beat": 48.0,
          "duration": 15.5,
          "velocity": 50
        }
      ]
    },
    {
      "track_index": 7,
      "track_name": "Lead",
      "notes": [
        {
          "pitch": 73,
          "start_beat": 2.0,
          "duration": 6.0,
          "velocity": 60
        },
        {
          "pitch": 76,
          "start_beat": 9.0,
          "duration": 5.0,
          "velocity": 65
        },
        {
          "pitch": 74,
          "start_beat": 18.0,
          "duration": 6.0,
          "velocity": 62
        },
        {
          "pitch": 78,
          "start_beat": 25.0,
          "duration": 5.5,
          "velocity": 68
        },
        {
          "pitch": 76,
          "start_beat": 34.0,
          "duration": 6.0,
          "velocity": 64
        },
        {
          "pitch": 80,
          "start_beat": 41.0,
          "duration": 5.0,
          "velocity": 70
        },
        {
          "pitch": 73,
          "start_beat": 50.0,
          "duration": 7.0,
          "velocity": 62
        },
        {
          "pitch": 68,
          "start_beat": 58.0,
          "duration": 5.0,
          "velocity": 55
        }
      ]
    },
    {
      "track_index": 8,
      "track_name": "Pad/Texture",
      "notes": [
        {
          "pitch": 57,
          "start_beat": 0.0,
          "duration": 16.0,
          "velocity": 45
        },
        {
          "pitch": 61,
          "start_beat": 0.0,
          "duration": 16.0,
          "velocity": 42
        },
        {
          "pitch": 64,
          "start_beat": 0.0,
          "duration": 16.0,
          "velocity": 40
        },
        {
          "pitch": 55,
          "start_beat": 16.0,
          "duration": 16.0,
          "velocity": 48
        },
        {
          "pitch": 59,
          "start_beat": 16.0,
          "duration": 16.0,
          "velocity": 44
        },
        {
          "pitch": 62,
          "start_beat": 16.0,
          "duration": 16.0,
          "velocity": 42
        },
        {
          "pitch": 57,
          "start_beat": 32.0,
          "duration": 16.0,
          "velocity": 50
        },
        {
          "pitch": 61,
          "start_beat": 32.0,
          "duration": 16.0,
          "velocity": 46
        },
        {
          "pitch": 64,
          "start_beat": 32.0,
          "duration": 16.0,
          "velocity": 44
        },
        {
          "pitch": 56,
          "start_beat": 48.0,
          "duration": 15.5,
          "velocity": 48
        },
        {
          "pitch": 59,
          "start_beat": 48.0,
          "duration": 15.5,
          "velocity": 44
        },
        {
          "pitch": 63,
          "start_beat": 48.0,
          "duration": 15.5,
          "velocity": 42
        }
      ]
    },
    {
      "track_index": 9,
      "track_name": "FX/Riser",
      "notes": [
        {
          "pitch": 84,
          "start_beat": 14.0,
          "duration": 2.0,
          "velocity": 50
        },
        {
          "pitch": 84,
          "start_beat": 30.0,
          "duration": 2.0,
          "velocity": 55
        },
        {
          "pitch": 84,
          "start_beat": 46.0,
          "duration": 2.0,
          "velocity": 58
        },
        {
          "pitch": 72,
          "start_beat": 56.0,
          "duration": 8.0,
          "velocity": 60
        }
      ]
    }
  ]
}