{
"meta": {"bpm": 124, "bars": 16, "key": "A minor", "style": "classic_groove"},
"tracks": [
{"track_index": 0, "track_name": "Kick", "notes": [
{"pitch": 36, "start_beat": 0.0, "duration": 0.25, "velocity": 115},
{"pitch": 36, "start_beat": 1.0, "duration": 0.25, "velocity": 108},
{"pitch": 36, "start_beat": 2.0, "duration": 0.25, "velocity": 112},
{"pitch": 36, "start_beat": 3.0, "duration": 0.25, "velocity": 108},
{"pitch": 36, "start_beat": 4.0, "duration": 0.25, "velocity": 115},
{"pitch": 36, "start_beat": 5.0, "duration": 0.25, "velocity": 108},
{"pitch": 36, "start_beat": 6.0, "duration": 0.25, "velocity": 112},
{"pitch": 36, "start_beat": 7.0, "duration": 0.25, "velocity": 108},
{"pitch": 36, "start_beat": 8.0, "duration": 0.25, "velocity": 115},
{"pitch": 36, "start_beat": 9.0, "duration": 0.25, "velocity": 108},
{"pitch": 36, "start_beat": 10.0, "duration": 0.25, "velocity": 112},
{"pitch": 36, "start_beat": 11.0, "duration": 0.25, "velocity": 108},
{"pitch": 36, "start_beat": 12.0, "duration": 0.25, "velocity": 115},
{"pitch": 36, "start_beat": 13.0, "duration": 0.25, "velocity": 108},
{"pitch": 36, "start_beat": 14.0, "duration": 0.25, "velocity": 112},
{"pitch": 36, "start_beat": 15.0, "duration": 0.25, "velocity": 108},
{"pitch": 36, "start_beat": 16.0, "duration": 0.25, "velocity": 115},
{"pitch": 36, "start_beat": 17.0, "duration": 0.25, "velocity": 108},
{"pitch": 36, "start_beat": 18.0, "duration": 0.25, "velocity": 112},
{"pitch": 36, "start_beat": 19.0, "duration": 0.25, "velocity": 108},
{"pitch": 36, "start_beat": 20.0, "duration": 0.25, "velocity": 115},
{"pitch": 36, "start_beat": 21.0, "duration": 0.25, "velocity": 108},
{"pitch": 36, "start_beat": 22.0, "duration": 0.25, "velocity": 112},
{"pitch": 36, "start_beat": 23.0, "duration": 0.25, "velocity": 108},
{"pitch": 36, "start_beat": 24.0, "duration": 0.25, "velocity": 115},
{"pitch": 36, "start_beat": 25.0, "duration": 0.25, "velocity": 108},
{"pitch": 36, "start_beat": 26.0, "duration": 0.25, "velocity": 112},
{"pitch": 36, "start_beat": 27.0, "duration": 0.25, "velocity": 108},
{"pitch": 36, "start_beat": 28.0, "duration": 0.25, "velocity": 115},
{"pitch": 36, "start_beat": 29.0, "duration": 0.25, "velocity": 108},
{"pitch": 36, "start_beat": 30.0, "duration": 0.25, "velocity": 112},
{"pitch": 36, "start_beat": 31.0, "duration": 0.25, "velocity": 108},
{"pitch": 36, "start_beat": 32.0, "duration": 0.25, "velocity": 115},
{"pitch": 36, "start_beat": 33.0, "duration": 0.25, "velocity": 108},
{"pitch": 36, "start_beat": 34.0, "duration": 0.25, "velocity": 112},
{"pitch": 36, "start_beat": 35.0, "duration": 0.25, "velocity": 108},
{"pitch": 36, "start_beat": 36.0, "duration": 0.25, "velocity": 115},
{"pitch": 36, "start_beat": 37.0, "duration": 0.25, "velocity": 108},
{"pitch": 36, "start_beat": 38.0, "duration": 0.25, "velocity": 112},
{"pitch": 36, "start_beat": 39.0, "duration": 0.25, "velocity": 108},
{"pitch": 36, "start_beat": 40.0, "duration": 0.25, "velocity": 115},
{"pitch": 36, "start_beat": 41.0, "duration": 0.25, "velocity": 108},
{"pitch": 36, "start_beat": 42.0, "duration": 0.25, "velocity": 112},
{"pitch": 36, "start_beat": 43.0, "duration": 0.25, "velocity": 108},
{"pitch": 36, "start_beat": 44.0, "duration": 0.25, "velocity": 115},
{"pitch": 36, "start_beat": 45.0, "duration": 0.25, "velocity": 108},
{"pitch": 36, "start_beat": 46.0, "duration": 0.25, "velocity": 112},
{"pitch": 36, "start_beat": 47.0, "duration": 0.25, "velocity": 108},
{"pitch": 36, "start_beat": 48.0, "duration": 0.25, "velocity": 115},
{"pitch": 36, "start_beat": 49.0, "duration": 0.25, "velocity": 108},
{"pitch": 36, "start_beat": 50.0, "duration": 0.25, "velocity": 112},
{"pitch": 36, "start_beat": 51.0, "duration": 0.25, "velocity": 108},
{"pitch": 36, "start_beat": 52.0, "duration": 0.25, "velocity": 115},
{"pitch": 36, "start_beat": 53.0, "duration": 0.25, "velocity": 108},
{"pitch": 36, "start_beat": 54.0, "duration": 0.25, "velocity": 112},
{"pitch": 36, "start_beat": 55.0, "duration": 0.25, "velocity": 108},
{"pitch": 36, "start_beat": 56.0, "duration": 0.25, "velocity": 115},
{"pitch": 36, "start_beat": 57.0, "duration": 0.25, "velocity": 108},
{"pitch": 36, "start_beat": 58.0, "duration": 0.25, "velocity": 112},
{"pitch": 36, "start_beat": 60.0, "duration": 0.25, "velocity": 100}
]},
{"track_index": 1, "track_name": "Snare/Clap", "notes": [
{"pitch": 40, "start_beat": 1.0, "duration": 0.25, "velocity": 100},
{"pitch": 40, "start_beat": 3.0, "duration": 0.25, "velocity": 105},
{"pitch": 38, "start_beat": 2.75, "duration": 0.125, "velocity": 55},
{"pitch": 40, "start_beat": 5.0, "duration": 0.25, "velocity": 100},
{"pitch": 40, "start_beat": 7.0, "duration": 0.25, "velocity": 105},
{"pitch": 38, "start_beat": 6.5, "duration": 0.125, "velocity": 50},
{"pitch": 40, "start_beat": 9.0, "duration": 0.25, "velocity": 100},
{"pitch": 40, "start_beat": 11.0, "duration": 0.25, "velocity": 105},
{"pitch": 38, "start_beat": 10.75, "duration": 0.125, "velocity": 55},
{"pitch": 40, "start_beat": 13.0, "duration": 0.25, "velocity": 100},
{"pitch": 40, "start_beat": 15.0, "duration": 0.25, "velocity": 105},
{"pitch": 40, "start_beat": 17.0, "duration": 0.25, "velocity": 100},
{"pitch": 40, "start_beat": 19.0, "duration": 0.25, "velocity": 105},
{"pitch": 38, "start_beat": 18.75, "duration": 0.125, "velocity": 55},
{"pitch": 40, "start_beat": 21.0, "duration": 0.25, "velocity": 100},
{"pitch": 40, "start_beat": 23.0, "duration": 0.25, "velocity": 105},
{"pitch": 40, "start_beat": 25.0, "duration": 0.25, "velocity": 100},
{"pitch": 40, "start_beat": 27.0, "duration": 0.25, "velocity": 105},
{"pitch": 38, "start_beat": 26.75, "duration": 0.125, "velocity": 55},
{"pitch": 40, "start_beat": 29.0, "duration": 0.25, "velocity": 100},
{"pitch": 40, "start_beat": 31.0, "duration": 0.25, "velocity": 105},
{"pitch": 40, "start_beat": 33.0, "duration": 0.25, "velocity": 100},
{"pitch": 40, "start_beat": 35.0, "duration": 0.25, "velocity": 105},
{"pitch": 38, "start_beat": 34.75, "duration": 0.125, "velocity": 55},
{"pitch": 40, "start_beat": 37.0, "duration": 0.25, "velocity": 100},
{"pitch": 40, "start_beat": 39.0, "duration": 0.25, "velocity": 105},
{"pitch": 40, "start_beat": 41.0, "duration": 0.25, "velocity": 100},
{"pitch": 40, "start_beat": 43.0, "duration": 0.25, "velocity": 105},
{"pitch": 38, "start_beat": 42.75, "duration": 0.125, "velocity": 55},
{"pitch": 40, "start_beat": 45.0, "duration": 0.25, "velocity": 100},
{"pitch": 40, "start_beat": 47.0, "duration": 0.25, "velocity": 105},
{"pitch": 40, "start_beat": 49.0, "duration": 0.25, "velocity": 100},
{"pitch": 40, "start_beat": 51.0, "duration": 0.25, "velocity": 105},
{"pitch": 40, "start_beat": 53.0, "duration": 0.25, "velocity": 100},
{"pitch": 40, "start_beat": 55.0, "duration": 0.25, "velocity": 105},
{"pitch": 38, "start_beat": 56.0, "duration": 0.125, "velocity": 70},
{"pitch": 38, "start_beat": 56.25, "duration": 0.125, "velocity": 60},
{"pitch": 38, "start_beat": 56.5, "duration": 0.125, "velocity": 75},
{"pitch": 38, "start_beat": 56.75, "duration": 0.125, "velocity": 65},
{"pitch": 38, "start_beat": 57.0, "duration": 0.125, "velocity": 80},
{"pitch": 38, "start_beat": 57.25, "duration": 0.125, "velocity": 70},
{"pitch": 38, "start_beat": 57.5, "duration": 0.125, "velocity": 85},
{"pitch": 38, "start_beat": 57.75, "duration": 0.125, "velocity": 75},
{"pitch": 38, "start_beat": 58.0, "duration": 0.125, "velocity": 90},
{"pitch": 38, "start_beat": 58.25, "duration": 0.125, "velocity": 80},
{"pitch": 38, "start_beat": 58.5, "duration": 0.125, "velocity": 95},
{"pitch": 38, "start_beat": 58.75, "duration": 0.125, "velocity": 85},
{"pitch": 38, "start_beat": 59.0, "duration": 0.125, "velocity": 100},
{"pitch": 38, "start_beat": 59.125, "duration": 0.125, "velocity": 90},
{"pitch": 38, "start_beat": 59.25, "duration": 0.125, "velocity": 105},
{"pitch": 38, "start_beat": 59.375, "duration": 0.125, "velocity": 95},
{"pitch": 38, "start_beat": 59.5, "duration": 0.125, "velocity": 110},
{"pitch": 38, "start_beat": 59.625, "duration": 0.125, "velocity": 100},
{"pitch": 38, "start_beat": 59.75, "duration": 0.125, "velocity": 115},
{"pitch": 38, "start_beat": 59.875, "duration": 0.125, "velocity": 105},
{"pitch": 40, "start_beat": 60.0, "duration": 0.5, "velocity": 120},
{"pitch": 40, "start_beat": 62.0, "duration": 0.25, "velocity": 110},
{"pitch": 40, "start_beat": 63.0, "duration": 0.25, "velocity": 115}
]},
{"track_index": 2, "track_name": "Closed Hat", "notes": [
{"pitch": 42, "start_beat": 0.5, "duration": 0.125, "velocity": 85},
{"pitch": 42, "start_beat": 1.5, "duration": 0.125, "velocity": 80},
{"pitch": 42, "start_beat": 2.5, "duration": 0.125, "velocity": 85},
{"pitch": 42, "start_beat": 3.5, "duration": 0.125, "velocity": 80},
{"pitch": 42, "start_beat": 4.5, "duration": 0.125, "velocity": 85},
{"pitch": 42, "start_beat": 5.5, "duration": 0.125, "velocity": 80},
{"pitch": 42, "start_beat": 6.5, "duration": 0.125, "velocity": 85},
{"pitch": 42, "start_beat": 7.5, "duration": 0.125, "velocity": 80},
{"pitch": 42, "start_beat": 8.5, "duration": 0.125, "velocity": 85},
{"pitch": 42, "start_beat": 9.5, "duration": 0.125, "velocity": 80},
{"pitch": 42, "start_beat": 10.5, "duration": 0.125, "velocity": 85},
{"pitch": 42, "start_beat": 11.5, "duration": 0.125, "velocity": 80},
{"pitch": 42, "start_beat": 12.5, "duration": 0.125, "velocity": 85},
{"pitch": 42, "start_beat": 13.5, "duration": 0.125, "velocity": 80},
{"pitch": 42, "start_beat": 14.5, "duration": 0.125, "velocity": 85},
{"pitch": 42, "start_beat": 15.5, "duration": 0.125, "velocity": 80},
{"pitch": 42, "start_beat": 16.5, "duration": 0.125, "velocity": 85},
{"pitch": 42, "start_beat": 17.5, "duration": 0.125, "velocity": 80},
{"pitch": 42, "start_beat": 18.5, "duration": 0.125, "velocity": 85},
{"pitch": 42, "start_beat": 19.5, "duration": 0.125, "velocity": 80},
{"pitch": 42, "start_beat": 20.5, "duration": 0.125, "velocity": 85},
{"pitch": 42, "start_beat": 21.5, "duration": 0.125, "velocity": 80},
{"pitch": 42, "start_beat": 22.5, "duration": 0.125, "velocity": 85},
{"pitch": 42, "start_beat": 23.5, "duration": 0.125, "velocity": 80},
{"pitch": 42, "start_beat": 24.5, "duration": 0.125, "velocity": 85},
{"pitch": 42, "start_beat": 25.5, "duration": 0.125, "velocity": 80},
{"pitch": 42, "start_beat": 26.5, "duration": 0.125, "velocity": 85},
{"pitch": 42, "start_beat": 27.5, "duration": 0.125, "velocity": 80},
{"pitch": 42, "start_beat": 28.5, "duration": 0.125, "velocity": 85},
{"pitch": 42, "start_beat": 29.5, "duration": 0.125, "velocity": 80},
{"pitch": 42, "start_beat": 30.5, "duration": 0.125, "velocity": 85},
{"pitch": 42, "start_beat": 31.5, "duration": 0.125, "velocity": 80},
{"pitch": 42, "start_beat": 32.5, "duration": 0.125, "velocity": 85},
{"pitch": 42, "start_beat": 33.5, "duration": 0.125, "velocity": 80},
{"pitch": 42, "start_beat": 34.5, "duration": 0.125, "velocity": 85},
{"pitch": 42, "start_beat": 35.5, "duration": 0.125, "velocity": 80},
{"pitch": 42, "start_beat": 36.5, "duration": 0.125, "velocity": 85},
{"pitch": 42, "start_beat": 37.5, "duration": 0.125, "velocity": 80},
{"pitch": 42, "start_beat": 38.5, "duration": 0.125, "velocity": 85},
{"pitch": 42, "start_beat": 39.5, "duration": 0.125, "velocity": 80},
{"pitch": 42, "start_beat": 40.5, "duration": 0.125, "velocity": 85},
{"pitch": 42, "start_beat": 41.5, "duration": 0.125, "velocity": 80},
{"pitch": 42, "start_beat": 42.5, "duration": 0.125, "velocity": 85},
{"pitch": 42, "start_beat": 43.5, "duration": 0.125, "velocity": 80},
{"pitch": 42, "start_beat": 44.5, "duration": 0.125, "velocity": 85},
{"pitch": 42, "start_beat": 45.5, "duration": 0.125, "velocity": 80},
{"pitch": 42, "start_beat": 46.5, "duration": 0.125, "velocity": 85},
{"pitch": 42, "start_beat": 47.5, "duration": 0.125, "velocity": 80},
{"pitch": 42, "start_beat": 48.5, "duration": 0.125, "velocity": 85},
{"pitch": 42, "start_beat": 49.5, "duration": 0.125, "velocity": 80},
{"pitch": 42, "start_beat": 50.5, "duration": 0.125, "velocity": 85},
{"pitch": 42, "start_beat": 51.5, "duration": 0.125, "velocity": 80},
{"pitch": 42, "start_beat": 52.5, "duration": 0.125, "velocity": 85},
{"pitch": 42, "start_beat": 53.5, "duration": 0.125, "velocity": 80},
{"pitch": 42, "start_beat": 54.5, "duration": 0.125, "velocity": 85},
{"pitch": 42, "start_beat": 55.5, "duration": 0.125, "velocity": 80},
{"pitch": 42, "start_beat": 56.0, "duration": 0.125, "velocity": 90},
{"pitch": 42, "start_beat": 56.25, "duration": 0.125, "velocity": 85},
{"pitch": 42, "start_beat": 56.5, "duration": 0.125, "velocity": 90},
{"pitch": 42, "start_beat": 56.75, "duration": 0.125, "velocity": 85},
{"pitch": 42, "start_beat": 57.0, "duration": 0.125, "velocity": 95},
{"pitch": 42, "start_beat": 57.25, "duration": 0.125, "velocity": 90},
{"pitch": 42, "start_beat": 57.5, "duration": 0.125, "velocity": 95},
{"pitch": 42, "start_beat": 57.75, "duration": 0.125, "velocity": 90},
{"pitch": 42, "start_beat": 58.0, "duration": 0.125, "velocity": 100},
{"pitch": 42, "start_beat": 58.25, "duration": 0.125, "velocity": 95},
{"pitch": 42, "start_beat": 58.5, "duration": 0.125, "velocity": 100},
{"pitch": 42, "start_beat": 58.75, "duration": 0.125, "velocity": 95}
]},
{"track_index": 3, "track_name": "Open Hat", "notes": [
{"pitch": 46, "start_beat": 0.75, "duration": 0.25, "velocity": 80},
{"pitch": 46, "start_beat": 2.75, "duration": 0.25, "velocity": 78},
{"pitch": 46, "start_beat": 4.75, "duration": 0.25, "velocity": 80},
{"pitch": 46, "start_beat": 6.75, "duration": 0.25, "velocity": 78},
{"pitch": 46, "start_beat": 8.75, "duration": 0.25, "velocity": 80},
{"pitch": 46, "start_beat": 10.75, "duration": 0.25, "velocity": 78},
{"pitch": 46, "start_beat": 12.75, "duration": 0.25, "velocity": 80},
{"pitch": 46, "start_beat": 14.75, "duration": 0.25, "velocity": 78},
{"pitch": 46, "start_beat": 16.75, "duration": 0.25, "velocity": 80},
{"pitch": 46, "start_beat": 18.75, "duration": 0.25, "velocity": 78},
{"pitch": 46, "start_beat": 20.75, "duration": 0.25, "velocity": 80},
{"pitch": 46, "start_beat": 22.75, "duration": 0.25, "velocity": 78},
{"pitch": 46, "start_beat": 24.75, "duration": 0.25, "velocity": 80},
{"pitch": 46, "start_beat": 26.75, "duration": 0.25, "velocity": 78},
{"pitch": 46, "start_beat": 28.75, "duration": 0.25, "velocity": 80},
{"pitch": 46, "start_beat": 30.75, "duration": 0.25, "velocity": 78},
{"pitch": 46, "start_beat": 32.75, "duration": 0.25, "velocity": 80},
{"pitch": 46, "start_beat": 34.75, "duration": 0.25, "velocity": 78},
{"pitch": 46, "start_beat": 36.75, "duration": 0.25, "velocity": 80},
{"pitch": 46, "start_beat": 38.75, "duration": 0.25, "velocity": 78},
{"pitch": 46, "start_beat": 40.75, "duration": 0.25, "velocity": 80},
{"pitch": 46, "start_beat": 42.75, "duration": 0.25, "velocity": 78},
{"pitch": 46, "start_beat": 44.75, "duration": 0.25, "velocity": 80},
{"pitch": 46, "start_beat": 46.75, "duration": 0.25, "velocity": 78},
{"pitch": 46, "start_beat": 48.75, "duration": 0.25, "velocity": 80},
{"pitch": 46, "start_beat": 50.75, "duration": 0.25, "velocity": 78},
{"pitch": 46, "start_beat": 52.75, "duration": 0.25, "velocity": 80},
{"pitch": 46, "start_beat": 54.75, "duration": 0.25, "velocity": 78},
{"pitch": 46, "start_beat": 60.0, "duration": 0.5, "velocity": 100}
]},
{"track_index": 4, "track_name": "Percussion", "notes": [
{"pitch": 60, "start_beat": 0.25, "duration": 0.125, "velocity": 70},
{"pitch": 56, "start_beat": 1.25, "duration": 0.125, "velocity": 65},
{"pitch": 60, "start_beat": 2.25, "duration": 0.125, "velocity": 70},
{"pitch": 56, "start_beat": 3.75, "duration": 0.125, "velocity": 60},
{"pitch": 54, "start_beat": 0.75, "duration": 0.125, "velocity": 55},
{"pitch": 54, "start_beat": 2.75, "duration": 0.125, "velocity": 55},
{"pitch": 60, "start_beat": 4.25, "duration": 0.125, "velocity": 70},
{"pitch": 56, "start_beat": 5.25, "duration": 0.125, "velocity": 65},
{"pitch": 60, "start_beat": 6.25, "duration": 0.125, "velocity": 70},
{"pitch": 56, "start_beat": 7.75, "duration": 0.125, "velocity": 60},
{"pitch": 54, "start_beat": 4.75, "duration": 0.125, "velocity": 55},
{"pitch": 48, "start_beat": 6.5, "duration": 0.125, "velocity": 70},
{"pitch": 60, "start_beat": 8.25, "duration": 0.125, "velocity": 70},
{"pitch": 56, "start_beat": 9.25, "duration": 0.125, "velocity": 65},
{"pitch": 60, "start_beat": 10.25, "duration": 0.125, "velocity": 70},
{"pitch": 56, "start_beat": 11.75, "duration": 0.125, "velocity": 60},
{"pitch": 54, "start_beat": 8.75, "duration": 0.125, "velocity": 55},
{"pitch": 54, "start_beat": 10.75, "duration": 0.125, "velocity": 55},
{"pitch": 60, "start_beat": 12.25, "duration": 0.125, "velocity": 70},
{"pitch": 56, "start_beat": 13.25, "duration": 0.125, "velocity": 65},
{"pitch": 60, "start_beat": 14.25, "duration": 0.125, "velocity": 70},
{"pitch": 56, "start_beat": 15.75, "duration": 0.125, "velocity": 60},
{"pitch": 48, "start_beat": 14.5, "duration": 0.125, "velocity": 75},
{"pitch": 60, "start_beat": 16.25, "duration": 0.125, "velocity": 70},
{"pitch": 56, "start_beat": 17.25, "duration": 0.125, "velocity": 65},
{"pitch": 60, "start_beat": 18.25, "duration": 0.125, "velocity": 70},
{"pitch": 56, "start_beat": 19.75, "duration": 0.125, "velocity": 60},
{"pitch": 54, "start_beat": 16.75, "duration": 0.125, "velocity": 55},
{"pitch": 54, "start_beat": 18.75, "duration": 0.125, "velocity": 55},
{"pitch": 60, "start_beat": 20.25, "duration": 0.125, "velocity": 70},
{"pitch": 56, "start_beat": 21.25, "duration": 0.125, "velocity": 65},
{"pitch": 60, "start_beat": 22.25, "duration": 0.125, "velocity": 70},
{"pitch": 56, "start_beat": 23.75, "duration": 0.125, "velocity": 60},
{"pitch": 48, "start_beat": 22.5, "duration": 0.125, "velocity": 70},
{"pitch": 60, "start_beat": 24.25, "duration": 0.125, "velocity": 70},
{"pitch": 56, "start_beat": 25.25, "duration": 0.125, "velocity": 65},
{"pitch": 60, "start_beat": 26.25, "duration": 0.125, "velocity": 70},
{"pitch": 56, "start_beat": 27.75, "duration": 0.125, "velocity": 60},
{"pitch": 54, "start_beat": 24.75, "duration": 0.125, "velocity": 55},
{"pitch": 54, "start_beat": 26.75, "duration": 0.125, "velocity": 55},
{"pitch": 60, "start_beat": 28.25, "duration": 0.125, "velocity": 70},
{"pitch": 56, "start_beat": 29.25, "duration": 0.125, "velocity": 65},
{"pitch": 60, "start_beat": 30.25, "duration": 0.125, "velocity": 70},
{"pitch": 56, "start_beat": 31.75, "duration": 0.125, "velocity": 60},
{"pitch": 48, "start_beat": 30.5, "duration": 0.125, "velocity": 75},
{"pitch": 60, "start_beat": 32.25, "duration": 0.125, "velocity": 70},
{"pitch": 56, "start_beat": 33.25, "duration": 0.125, "velocity": 65},
{"pitch": 60, "start_beat": 34.25, "duration": 0.125, "velocity": 70},
{"pitch": 56, "start_beat": 35.75, "duration": 0.125, "velocity": 60},
{"pitch": 54, "start_beat": 32.75, "duration": 0.125, "velocity": 55},
{"pitch": 54, "start_beat": 34.75, "duration": 0.125, "velocity": 55},
{"pitch": 60, "start_beat": 36.25, "duration": 0.125, "velocity": 70},
{"pitch": 56, "start_beat": 37.25, "duration": 0.125, "velocity": 65},
{"pitch": 60, "start_beat": 38.25, "duration": 0.125, "velocity": 70},
{"pitch": 56, "start_beat": 39.75, "duration": 0.125, "velocity": 60},
{"pitch": 48, "start_beat": 38.5, "duration": 0.125, "velocity": 70},
{"pitch": 60, "start_beat": 40.25, "duration": 0.125, "velocity": 70},
{"pitch": 56, "start_beat": 41.25, "duration": 0.125, "velocity": 65},
{"pitch": 60, "start_beat": 42.25, "duration": 0.125, "velocity": 70},
{"pitch": 56, "start_beat": 43.75, "duration": 0.125, "velocity": 60},
{"pitch": 54, "start_beat": 40.75, "duration": 0.125, "velocity": 55},
{"pitch": 54, "start_beat": 42.75, "duration": 0.125, "velocity": 55},
{"pitch": 60, "start_beat": 44.25, "duration": 0.125, "velocity": 70},
{"pitch": 56, "start_beat": 45.25, "duration": 0.125, "velocity": 65},
{"pitch": 60, "start_beat": 46.25, "duration": 0.125, "velocity": 70},
{"pitch": 56, "start_beat": 47.75, "duration": 0.125, "velocity": 60},
{"pitch": 48, "start_beat": 46.5, "duration": 0.125, "velocity": 75},
{"pitch": 60, "start_beat": 48.25, "duration": 0.125, "velocity": 70},
{"pitch": 56, "start_beat": 49.25, "duration": 0.125, "velocity": 65},
{"pitch": 60, "start_beat": 50.25, "duration": 0.125, "velocity": 70},
{"pitch": 56, "start_beat": 51.75, "duration": 0.125, "velocity": 60},
{"pitch": 54, "start_beat": 48.75, "duration": 0.125, "velocity": 55},
{"pitch": 54, "start_beat": 50.75, "duration": 0.125, "velocity": 55},
{"pitch": 60, "start_beat": 52.25, "duration": 0.125, "velocity": 70},
{"pitch": 56, "start_beat": 53.25, "duration": 0.125, "velocity": 65},
{"pitch": 60, "start_beat": 54.25, "duration": 0.125, "velocity": 70},
{"pitch": 56, "start_beat": 55.75, "duration": 0.125, "velocity": 60},
{"pitch": 48, "start_beat": 54.5, "duration": 0.125, "velocity": 70},
{"pitch": 48, "start_beat": 56.0, "duration": 0.125, "velocity": 80},
{"pitch": 48, "start_beat": 56.5, "duration": 0.125, "velocity": 82},
{"pitch": 48, "start_beat": 57.0, "duration": 0.125, "velocity": 85},
{"pitch": 48, "start_beat": 57.5, "duration": 0.125, "velocity": 88},
{"pitch": 48, "start_beat": 58.0, "duration": 0.125, "velocity": 90},
{"pitch": 48, "start_beat": 58.5, "duration": 0.125, "velocity": 95},
{"pitch": 60, "start_beat": 59.0, "duration": 0.125, "velocity": 100},
{"pitch": 60, "start_beat": 59.25, "duration": 0.125, "velocity": 95},
{"pitch": 60, "start_beat": 59.5, "duration": 0.125, "velocity": 105},
{"pitch": 60, "start_beat": 59.75, "duration": 0.125, "velocity": 100},
{"pitch": 48, "start_beat": 60.0, "duration": 0.25, "velocity": 110}
]},
{"track_index": 5, "track_name": "Bass", "notes": [
{"pitch": 33, "start_beat": 0.0, "duration": 0.5, "velocity": 110},
{"pitch": 33, "start_beat": 0.75, "duration": 0.25, "velocity": 95},
{"pitch": 40, "start_beat": 1.5, "duration": 0.25, "velocity": 90},
{"pitch": 33, "start_beat": 2.0, "duration": 0.5, "velocity": 105},
{"pitch": 35, "start_beat": 2.75, "duration": 0.25, "velocity": 88},
{"pitch": 33, "start_beat": 3.5, "duration": 0.5, "velocity": 92},
{"pitch": 33, "start_beat": 4.0, "duration": 0.5, "velocity": 110},
{"pitch": 33, "start_beat": 4.75, "duration": 0.25, "velocity": 95},
{"pitch": 40, "start_beat": 5.5, "duration": 0.25, "velocity": 90},
{"pitch": 33, "start_beat": 6.0, "duration": 0.5, "velocity": 105},
{"pitch": 35, "start_beat": 6.75, "duration": 0.25, "velocity": 88},
{"pitch": 33, "start_beat": 7.5, "duration": 0.5, "velocity": 92},
{"pitch": 33, "start_beat": 8.0, "duration": 0.5, "velocity": 110},
{"pitch": 33, "start_beat": 8.75, "duration": 0.25, "velocity": 95},
{"pitch": 40, "start_beat": 9.5, "duration": 0.25, "velocity": 90},
{"pitch": 33, "start_beat": 10.0, "duration": 0.5, "velocity": 105},
{"pitch": 35, "start_beat": 10.75, "duration": 0.25, "velocity": 88},
{"pitch": 33, "start_beat": 11.5, "duration": 0.5, "velocity": 92},
{"pitch": 33, "start_beat": 12.0, "duration": 0.5, "velocity": 110},
{"pitch": 33, "start_beat": 12.75, "duration": 0.25, "velocity": 95},
{"pitch": 40, "start_beat": 13.5, "duration": 0.25, "velocity": 90},
{"pitch": 33, "start_beat": 14.0, "duration": 0.5, "velocity": 105},
{"pitch": 35, "start_beat": 14.75, "duration": 0.25, "velocity": 88},
{"pitch": 37, "start_beat": 15.5, "duration": 0.5, "velocity": 90},
{"pitch": 29, "start_beat": 16.0, "duration": 0.5, "velocity": 110},
{"pitch": 29, "start_beat": 16.75, "duration": 0.25, "velocity": 95},
{"pitch": 36, "start_beat": 17.5, "duration": 0.25, "velocity": 90},
{"pitch": 29, "start_beat": 18.0, "duration": 0.5, "velocity": 105},
{"pitch": 33, "start_beat": 18.75, "duration": 0.25, "velocity": 88},
{"pitch": 29, "start_beat": 19.5, "duration": 0.5, "velocity": 92},
{"pitch": 29, "start_beat": 20.0, "duration": 0.5, "velocity": 110},
{"pitch": 29, "start_beat": 20.75, "duration": 0.25, "velocity": 95},
{"pitch": 36, "start_beat": 21.5, "duration": 0.25, "velocity": 90},
{"pitch": 29, "start_beat": 22.0, "duration": 0.5, "velocity": 105},
{"pitch": 33, "start_beat": 22.75, "duration": 0.25, "velocity": 88},
{"pitch": 29, "start_beat": 23.5, "duration": 0.5, "velocity": 92},
{"pitch": 29, "start_beat": 24.0, "duration": 0.5, "velocity": 110},
{"pitch": 29, "start_beat": 24.75, "duration": 0.25, "velocity": 95},
{"pitch": 36, "start_beat": 25.5, "duration": 0.25, "velocity": 90},
{"pitch": 29, "start_beat": 26.0, "duration": 0.5, "velocity": 105},
{"pitch": 33, "start_beat": 26.75, "duration": 0.25, "velocity": 88},
{"pitch": 29, "start_beat": 27.5, "duration": 0.5, "velocity": 92},
{"pitch": 29, "start_beat": 28.0, "duration": 0.5, "velocity": 110},
{"pitch": 29, "start_beat": 28.75, "duration": 0.25, "velocity": 95},
{"pitch": 36, "start_beat": 29.5, "duration": 0.25, "velocity": 90},
{"pitch": 29, "start_beat": 30.0, "duration": 0.5, "velocity": 105},
{"pitch": 33, "start_beat": 30.75, "duration": 0.25, "velocity": 88},
{"pitch": 31, "start_beat": 31.5, "duration": 0.5, "velocity": 92},
{"pitch": 36, "start_beat": 32.0, "duration": 0.5, "velocity": 110},
{"pitch": 36, "start_beat": 32.75, "duration": 0.25, "velocity": 95},
{"pitch": 43, "start_beat": 33.5, "duration": 0.25, "velocity": 90},
{"pitch": 36, "start_beat": 34.0, "duration": 0.5, "velocity": 105},
{"pitch": 40, "start_beat": 34.75, "duration": 0.25, "velocity": 88},
{"pitch": 36, "start_beat": 35.5, "duration": 0.5, "velocity": 92},
{"pitch": 36, "start_beat": 36.0, "duration": 0.5, "velocity": 110},
{"pitch": 36, "start_beat": 36.75, "duration": 0.25, "velocity": 95},
{"pitch": 43, "start_beat": 37.5, "duration": 0.25, "velocity": 90},
{"pitch": 36, "start_beat": 38.0, "duration": 0.5, "velocity": 105},
{"pitch": 40, "start_beat": 38.75, "duration": 0.25, "velocity": 88},
{"pitch": 36, "start_beat": 39.5, "duration": 0.5, "velocity": 92},
{"pitch": 36, "start_beat": 40.0, "duration": 0.5, "velocity": 110},
{"pitch": 36, "start_beat": 40.75, "duration": 0.25, "velocity": 95},
{"pitch": 43, "start_beat": 41.5, "duration": 0.25, "velocity": 90},
{"pitch": 36, "start_beat": 42.0, "duration": 0.5, "velocity": 105},
{"pitch": 40, "start_beat": 42.75, "duration": 0.25, "velocity": 88},
{"pitch": 36, "start_beat": 43.5, "duration": 0.5, "velocity": 92},
{"pitch": 36, "start_beat": 44.0, "duration": 0.5, "velocity": 110},
{"pitch": 36, "start_beat": 44.75, "duration": 0.25, "velocity": 95},
{"pitch": 43, "start_beat": 45.5, "duration": 0.25, "velocity": 90},
{"pitch": 36, "start_beat": 46.0, "duration": 0.5, "velocity": 105},
{"pitch": 40, "start_beat": 46.75, "duration": 0.25, "velocity": 88},
{"pitch": 38, "start_beat": 47.5, "duration": 0.5, "velocity": 90},
{"pitch": 28, "start_beat": 48.0, "duration": 0.5, "velocity": 110},
{"pitch": 28, "start_beat": 48.75, "duration": 0.25, "velocity": 95},
{"pitch": 35, "start_beat": 49.5, "duration": 0.25, "velocity": 90},
{"pitch": 28, "start_beat": 50.0, "duration": 0.5, "velocity": 105},
{"pitch": 31, "start_beat": 50.75, "duration": 0.25, "velocity": 88},
{"pitch": 28, "start_beat": 51.5, "duration": 0.5, "velocity": 92},
{"pitch": 28, "start_beat": 52.0, "duration": 0.5, "velocity": 110},
{"pitch": 28, "start_beat": 52.75, "duration": 0.25, "velocity": 95},
{"pitch": 35, "start_beat": 53.5, "duration": 0.25, "velocity": 90},
{"pitch": 28, "start_beat": 54.0, "duration": 0.5, "velocity": 105},
{"pitch": 31, "start_beat": 54.75, "duration": 0.25, "velocity": 88},
{"pitch": 28, "start_beat": 55.5, "duration": 0.5, "velocity": 92},
{"pitch": 28, "start_beat": 56.0, "duration": 0.5, "velocity": 110},
{"pitch": 28, "start_beat": 56.75, "duration": 0.25, "velocity": 95},
{"pitch": 35, "start_beat": 57.5, "duration": 0.25, "velocity": 90},
{"pitch": 28, "start_beat": 58.0, "duration": 0.5, "velocity": 105},
{"pitch": 31, "start_beat": 58.75, "duration": 0.25, "velocity": 88},
{"pitch": 33, "start_beat": 60.0, "duration": 2.0, "velocity": 100}
]},
{"track_index": 6, "track_name": "Chord/Rhodes", "notes": [
{"pitch": 67, "start_beat": 0.5, "duration": 0.5, "velocity": 78},
{"pitch": 72, "start_beat": 0.5, "duration": 0.5, "velocity": 75},
{"pitch": 74, "start_beat": 0.5, "duration": 0.5, "velocity": 72},
{"pitch": 67, "start_beat": 2.5, "duration": 0.5, "velocity": 80},
{"pitch": 72, "start_beat": 2.5, "duration": 0.5, "velocity": 77},
{"pitch": 74, "start_beat": 2.5, "duration": 0.5, "velocity": 74},
{"pitch": 67, "start_beat": 3.75, "duration": 0.25, "velocity": 65},
{"pitch": 72, "start_beat": 3.75, "duration": 0.25, "velocity": 62},
{"pitch": 67, "start_beat": 4.5, "duration": 0.5, "velocity": 78},
{"pitch": 72, "start_beat": 4.5, "duration": 0.5, "velocity": 75},
{"pitch": 74, "start_beat": 4.5, "duration": 0.5, "velocity": 72},
{"pitch": 67, "start_beat": 6.5, "duration": 0.5, "velocity": 80},
{"pitch": 72, "start_beat": 6.5, "duration": 0.5, "velocity": 77},
{"pitch": 74, "start_beat": 6.5, "duration": 0.5, "velocity": 74},
{"pitch": 67, "start_beat": 8.5, "duration": 0.5, "velocity": 78},
{"pitch": 72, "start_beat": 8.5, "duration": 0.5, "velocity": 75},
{"pitch": 74, "start_beat": 8.5, "duration": 0.5, "velocity": 72},
{"pitch": 67, "start_beat": 10.5, "duration": 0.5, "velocity": 80},
{"pitch": 72, "start_beat": 10.5, "duration": 0.5, "velocity": 77},
{"pitch": 74, "start_beat": 10.5, "duration": 0.5, "velocity": 74},
{"pitch": 67, "start_beat": 11.75, "duration": 0.25, "velocity": 65},
{"pitch": 67, "start_beat": 12.5, "duration": 0.5, "velocity": 78},
{"pitch": 72, "start_beat": 12.5, "duration": 0.5, "velocity": 75},
{"pitch": 74, "start_beat": 12.5, "duration": 0.5, "velocity": 72},
{"pitch": 67, "start_beat": 14.5, "duration": 0.5, "velocity": 80},
{"pitch": 72, "start_beat": 14.5, "duration": 0.5, "velocity": 77},
{"pitch": 74, "start_beat": 14.5, "duration": 0.5, "velocity": 74},
{"pitch": 65, "start_beat": 16.5, "duration": 0.5, "velocity": 78},
{"pitch": 69, "start_beat": 16.5, "duration": 0.5, "velocity": 75},
{"pitch": 72, "start_beat": 16.5, "duration": 0.5, "velocity": 72},
{"pitch": 65, "start_beat": 18.5, "duration": 0.5, "velocity": 80},
{"pitch": 69, "start_beat": 18.5, "duration": 0.5, "velocity": 77},
{"pitch": 72, "start_beat": 18.5, "duration": 0.5, "velocity": 74},
{"pitch": 65, "start_beat": 19.75, "duration": 0.25, "velocity": 65},
{"pitch": 65, "start_beat": 20.5, "duration": 0.5, "velocity": 78},
{"pitch": 69, "start_beat": 20.5, "duration": 0.5, "velocity": 75},
{"pitch": 72, "start_beat": 20.5, "duration": 0.5, "velocity": 72},
{"pitch": 65, "start_beat": 22.5, "duration": 0.5, "velocity": 80},
{"pitch": 69, "start_beat": 22.5, "duration": 0.5, "velocity": 77},
{"pitch": 72, "start_beat": 22.5, "duration": 0.5, "velocity": 74},
{"pitch": 65, "start_beat": 24.5, "duration": 0.5, "velocity": 78},
{"pitch": 69, "start_beat": 24.5, "duration": 0.5, "velocity": 75},
{"pitch": 72, "start_beat": 24.5, "duration": 0.5, "velocity": 72},
{"pitch": 65, "start_beat": 26.5, "duration": 0.5, "velocity": 80},
{"pitch": 69, "start_beat": 26.5, "duration": 0.5, "velocity": 77},
{"pitch": 72, "start_beat": 26.5, "duration": 0.5, "velocity": 74},
{"pitch": 65, "start_beat": 28.5, "duration": 0.5, "velocity": 78},
{"pitch": 69, "start_beat": 28.5, "duration": 0.5, "velocity": 75},
{"pitch": 72, "start_beat": 28.5, "duration": 0.5, "velocity": 72},
{"pitch": 65, "start_beat": 30.5, "duration": 0.5, "velocity": 80},
{"pitch": 69, "start_beat": 30.5, "duration": 0.5, "velocity": 77},
{"pitch": 72, "start_beat": 30.5, "duration": 0.5, "velocity": 74},
{"pitch": 64, "start_beat": 32.5, "duration": 0.5, "velocity": 78},
{"pitch": 67, "start_beat": 32.5, "duration": 0.5, "velocity": 75},
{"pitch": 71, "start_beat": 32.5, "duration": 0.5, "velocity": 72},
{"pitch": 64, "start_beat": 34.5, "duration": 0.5, "velocity": 80},
{"pitch": 67, "start_beat": 34.5, "duration": 0.5, "velocity": 77},
{"pitch": 71, "start_beat": 34.5, "duration": 0.5, "velocity": 74},
{"pitch": 64, "start_beat": 35.75, "duration": 0.25, "velocity": 65},
{"pitch": 64, "start_beat": 36.5, "duration": 0.5, "velocity": 78},
{"pitch": 67, "start_beat": 36.5, "duration": 0.5, "velocity": 75},
{"pitch": 71, "start_beat": 36.5, "duration": 0.5, "velocity": 72},
{"pitch": 64, "start_beat": 38.5, "duration": 0.5, "velocity": 80},
{"pitch": 67, "start_beat": 38.5, "duration": 0.5, "velocity": 77},
{"pitch": 71, "start_beat": 38.5, "duration": 0.5, "velocity": 74},
{"pitch": 64, "start_beat": 40.5, "duration": 0.5, "velocity": 78},
{"pitch": 67, "start_beat": 40.5, "duration": 0.5, "velocity": 75},
{"pitch": 71, "start_beat": 40.5, "duration": 0.5, "velocity": 72},
{"pitch": 64, "start_beat": 42.5, "duration": 0.5, "velocity": 80},
{"pitch": 67, "start_beat": 42.5, "duration": 0.5, "velocity": 77},
{"pitch": 71, "start_beat": 42.5, "duration": 0.5, "velocity": 74},
{"pitch": 64, "start_beat": 44.5, "duration": 0.5, "velocity": 78},
{"pitch": 67, "start_beat": 44.5, "duration": 0.5, "velocity": 75},
{"pitch": 71, "start_beat": 44.5, "duration": 0.5, "velocity": 72},
{"pitch": 64, "start_beat": 46.5, "duration": 0.5, "velocity": 80},
{"pitch": 67, "start_beat": 46.5, "duration": 0.5, "velocity": 77},
{"pitch": 71, "start_beat": 46.5, "duration": 0.5, "velocity": 74},
{"pitch": 67, "start_beat": 48.5, "duration": 0.5, "velocity": 78},
{"pitch": 71, "start_beat": 48.5, "duration": 0.5, "velocity": 75},
{"pitch": 74, "start_beat": 48.5, "duration": 0.5, "velocity": 72},
{"pitch": 67, "start_beat": 50.5, "duration": 0.5, "velocity": 80},
{"pitch": 71, "start_beat": 50.5, "duration": 0.5, "velocity": 77},
{"pitch": 74, "start_beat": 50.5, "duration": 0.5, "velocity": 74},
{"pitch": 67, "start_beat": 52.5, "duration": 0.5, "velocity": 78},
{"pitch": 71, "start_beat": 52.5, "duration": 0.5, "velocity": 75},
{"pitch": 74, "start_beat": 52.5, "duration": 0.5, "velocity": 72},
{"pitch": 67, "start_beat": 54.5, "duration": 0.5, "velocity": 80},
{"pitch": 71, "start_beat": 54.5, "duration": 0.5, "velocity": 77},
{"pitch": 74, "start_beat": 54.5, "duration": 0.5, "velocity": 74},
{"pitch": 67, "start_beat": 56.5, "duration": 0.5, "velocity": 78},
{"pitch": 71, "start_beat": 56.5, "duration": 0.5, "velocity": 75},
{"pitch": 74, "start_beat": 56.5, "duration": 0.5, "velocity": 72},
{"pitch": 67, "start_beat": 60.0, "duration": 2.0, "velocity": 85},
{"pitch": 72, "start_beat": 60.0, "duration": 2.0, "velocity": 82},
{"pitch": 76, "start_beat": 60.0, "duration": 2.0, "velocity": 80}
]},
{"track_index": 7, "track_name": "Lead", "notes": [
{"pitch": 76, "start_beat": 8.0, "duration": 1.0, "velocity": 85},
{"pitch": 79, "start_beat": 9.0, "duration": 0.5, "velocity": 88},
{"pitch": 77, "start_beat": 9.5, "duration": 0.5, "velocity": 80},
{"pitch": 74, "start_beat": 10.0, "duration": 1.5, "velocity": 82},
{"pitch": 72, "start_beat": 12.0, "duration": 0.5, "velocity": 78},
{"pitch": 76, "start_beat": 13.0, "duration": 0.5, "velocity": 82},
{"pitch": 79, "start_beat": 14.0, "duration": 1.0, "velocity": 86},
{"pitch": 74, "start_beat": 24.0, "duration": 1.0, "velocity": 85},
{"pitch": 77, "start_beat": 25.0, "duration": 0.5, "velocity": 88},
{"pitch": 76, "start_beat": 25.5, "duration": 0.5, "velocity": 80},
{"pitch": 72, "start_beat": 26.0, "duration": 1.5, "velocity": 82},
{"pitch": 69, "start_beat": 28.0, "duration": 0.5, "velocity": 78},
{"pitch": 72, "start_beat": 29.0, "duration": 0.5, "velocity": 82},
{"pitch": 77, "start_beat": 30.0, "duration": 1.0, "velocity": 86},
{"pitch": 72, "start_beat": 40.0, "duration": 1.0, "velocity": 85},
{"pitch": 76, "start_beat": 41.0, "duration": 0.5, "velocity": 88},
{"pitch": 74, "start_beat": 41.5, "duration": 0.5, "velocity": 80},
{"pitch": 71, "start_beat": 42.0, "duration": 1.5, "velocity": 82},
{"pitch": 67, "start_beat": 44.0, "duration": 0.5, "velocity": 78},
{"pitch": 71, "start_beat": 45.0, "duration": 0.5, "velocity": 82},
{"pitch": 76, "start_beat": 46.0, "duration": 1.5, "velocity": 86},
{"pitch": 71, "start_beat": 56.0, "duration": 1.0, "velocity": 90},
{"pitch": 74, "start_beat": 57.0, "duration": 0.5, "velocity": 92},
{"pitch": 76, "start_beat": 57.5, "duration": 0.5, "velocity": 88},
{"pitch": 79, "start_beat": 58.0, "duration": 1.5, "velocity": 95},
{"pitch": 81, "start_beat": 60.0, "duration": 4.0, "velocity": 100}
]},
{"track_index": 8, "track_name": "Pad/Texture", "notes": [
{"pitch": 60, "start_beat": 0.0, "duration": 16.0, "velocity": 55},
{"pitch": 67, "start_beat": 0.0, "duration": 16.0, "velocity": 50},
{"pitch": 71, "start_beat": 0.0, "duration": 16.0, "velocity": 48},
{"pitch": 74, "start_beat": 0.0, "duration": 16.0, "velocity": 52},
{"pitch": 57, "start_beat": 16.0, "duration": 16.0, "velocity": 55},
{"pitch": 64, "start_beat": 16.0, "duration": 16.0, "velocity": 50},
{"pitch": 69, "start_beat": 16.0, "duration": 16.0, "velocity": 48},
{"pitch": 72, "start_beat": 16.0, "duration": 16.0, "velocity": 52},
{"pitch": 55, "start_beat": 32.0, "duration": 16.0, "velocity": 55},
{"pitch": 64, "start_beat": 32.0, "duration": 16.0, "velocity": 50},
{"pitch": 67, "start_beat": 32.0, "duration": 16.0, "velocity": 48},
{"pitch": 71, "start_beat": 32.0, "duration": 16.0, "velocity": 52},
{"pitch": 59, "start_beat": 48.0, "duration": 16.0, "velocity": 55},
{"pitch": 67, "start_beat": 48.0, "duration": 16.0, "velocity": 50},
{"pitch": 71, "start_beat": 48.0, "duration": 16.0, "velocity": 48},
{"pitch": 74, "start_beat": 48.0, "duration": 16.0, "velocity": 52}
]},
{"track_index": 9, "track_name": "FX/Riser", "notes": [
{"pitch": 72, "start_beat": 0.0, "duration": 0.5, "velocity": 60},
{"pitch": 84, "start_beat": 15.5, "duration": 0.5, "velocity": 70},
{"pitch": 72, "start_beat": 16.0, "duration": 0.5, "velocity": 60},
{"pitch": 84, "start_beat": 31.5, "duration": 0.5, "velocity": 70},
{"pitch": 72, "start_beat": 32.0, "duration": 0.5, "velocity": 60},
{"pitch": 84, "start_beat": 47.5, "duration": 0.5, "velocity": 70},
{"pitch": 72, "start_beat": 48.0, "duration": 0.5, "velocity": 60},
{"pitch": 60, "start_beat": 56.0, "duration": 4.0, "velocity": 70},
{"pitch": 64, "start_beat": 56.0, "duration": 4.0, "velocity": 65},
{"pitch": 67, "start_beat": 57.0, "duration": 3.0, "velocity": 70},
{"pitch": 72, "start_beat": 58.0, "duration": 2.0, "velocity": 75},
{"pitch": 76, "start_beat": 58.5, "duration": 1.5, "velocity": 80},
{"pitch": 79, "start_beat": 59.0, "duration": 1.0, "velocity": 85},
{"pitch": 84, "start_beat": 59.5, "duration": 0.5, "velocity": 95},
{"pitch": 96, "start_beat": 60.0, "duration": 2.0, "velocity": 110},
{"pitch": 88, "start_beat": 60.0, "duration": 2.0, "velocity": 90}
]}
]
}