{
  "meta": {
    "bpm": 124,
    "bars": 32,
    "key": "A minor",
    "style": "ambient_pad"
  },
  "tracks": [
    {
      "track_index": 0,
      "track_name": "Kick",
      "notes": [
        {
          "pitch": 36,
          "start_beat": 0.0,
          "duration": 0.5,
          "velocity": 100
        },
        {
          "pitch": 36,
          "start_beat": 16.0,
          "duration": 0.5,
          "velocity": 100
        },
        {
          "pitch": 36,
          "start_beat": 32.0,
          "duration": 0.5,
          "velocity": 100
        },
        {
          "pitch": 36,
          "start_beat": 48.0,
          "duration": 0.5,
          "velocity": 100
        },
        {
          "pitch": 36,
          "start_beat": 64.0,
          "duration": 0.5,
          "velocity": 95
        },
        {
          "pitch": 36,
          "start_beat": 80.0,
          "duration": 0.5,
          "velocity": 95
        },
        {
          "pitch": 36,
          "start_beat": 96.0,
          "duration": 0.5,
          "velocity": 90
        },
        {
          "pitch": 36,
          "start_beat": 112.0,
          "duration": 0.5,
          "velocity": 85
        }
      ]
    },
    {
      "track_index": 1,
      "track_name": "Snare/Clap",
      "notes": [
        {
          "pitch": 40,
          "start_beat": 34.0,
          "duration": 0.25,
          "velocity": 55
        },
        {
          "pitch": 40,
          "start_beat": 66.0,
          "duration": 0.25,
          "velocity": 50
        },
        {
          "pitch": 40,
          "start_beat": 98.0,
          "duration": 0.25,
          "velocity": 45
        }
      ]
    },
    {
      "track_index": 2,
      "track_name": "Closed Hat",
      "notes": [
        {
          "pitch": 42,
          "start_beat": 18.5,
          "duration": 0.125,
          "velocity": 50
        },
        {
          "pitch": 42,
          "start_beat": 22.5,
          "duration": 0.125,
          "velocity": 45
        },
        {
          "pitch": 42,
          "start_beat": 26.5,
          "duration": 0.125,
          "velocity": 50
        },
        {
          "pitch": 42,
          "start_beat": 30.5,
          "duration": 0.125,
          "velocity": 45
        },
        {
          "pitch": 42,
          "start_beat": 50.5,
          "duration": 0.125,
          "velocity": 50
        },
        {
          "pitch": 42,
          "start_beat": 54.5,
          "duration": 0.125,
          "velocity": 45
        },
        {
          "pitch": 42,
          "start_beat": 58.5,
          "duration": 0.125,
          "velocity": 50
        },
        {
          "pitch": 42,
          "start_beat": 62.5,
          "duration": 0.125,
          "velocity": 45
        },
        {
          "pitch": 42,
          "start_beat": 82.5,
          "duration": 0.125,
          "velocity": 50
        },
        {
          "pitch": 42,
          "start_beat": 86.5,
          "duration": 0.125,
          "velocity": 45
        },
        {
          "pitch": 42,
          "start_beat": 90.5,
          "duration": 0.125,
          "velocity": 50
        },
        {
          "pitch": 42,
          "start_beat": 94.5,
          "duration": 0.125,
          "velocity": 45
        }
      ]
    },
    {
      "track_index": 3,
      "track_name": "Open Hat",
      "notes": [
        {
          "pitch": 46,
          "start_beat": 38.0,
          "duration": 0.5,
          "velocity": 55
        },
        {
          "pitch": 46,
          "start_beat": 54.0,
          "duration": 0.5,
          "velocity": 55
        },
        {
          "pitch": 46,
          "start_beat": 70.0,
          "duration": 0.5,
          "velocity": 60
        },
        {
          "pitch": 46,
          "start_beat": 86.0,
          "duration": 0.5,
          "velocity": 55
        },
        {
          "pitch": 46,
          "start_beat": 102.0,
          "duration": 0.5,
          "velocity": 50
        }
      ]
    },
    {
      "track_index": 4,
      "track_name": "Percussion",
      "notes": [
        {
          "pitch": 56,
          "start_beat": 6.0,
          "duration": 0.25,
          "velocity": 55
        },
        {
          "pitch": 60,
          "start_beat": 10.5,
          "duration": 0.25,
          "velocity": 50
        },
        {
          "pitch": 54,
          "start_beat": 14.0,
          "duration": 0.25,
          "velocity": 60
        },
        {
          "pitch": 56,
          "start_beat": 22.0,
          "duration": 0.25,
          "velocity": 55
        },
        {
          "pitch": 60,
          "start_beat": 26.5,
          "duration": 0.25,
          "velocity": 50
        },
        {
          "pitch": 54,
          "start_beat": 30.0,
          "duration": 0.25,
          "velocity": 60
        },
        {
          "pitch": 58,
          "start_beat": 38.5,
          "duration": 0.25,
          "velocity": 55
        },
        {
          "pitch": 56,
          "start_beat": 42.0,
          "duration": 0.25,
          "velocity": 50
        },
        {
          "pitch": 60,
          "start_beat": 46.5,
          "duration": 0.25,
          "velocity": 55
        },
        {
          "pitch": 54,
          "start_beat": 54.0,
          "duration": 0.25,
          "velocity": 60
        },
        {
          "pitch": 58,
          "start_beat": 58.5,
          "duration": 0.25,
          "velocity": 55
        },
        {
          "pitch": 56,
          "start_beat": 62.0,
          "duration": 0.25,
          "velocity": 50
        },
        {
          "pitch": 60,
          "start_beat": 70.5,
          "duration": 0.25,
          "velocity": 55
        },
        {
          "pitch": 54,
          "start_beat": 74.0,
          "duration": 0.25,
          "velocity": 60
        },
        {
          "pitch": 56,
          "start_beat": 78.5,
          "duration": 0.25,
          "velocity": 55
        },
        {
          "pitch": 58,
          "start_beat": 86.0,
          "duration": 0.25,
          "velocity": 50
        },
        {
          "pitch": 60,
          "start_beat": 90.5,
          "duration": 0.25,
          "velocity": 55
        },
        {
          "pitch": 54,
          "start_beat": 94.0,
          "duration": 0.25,
          "velocity": 60
        },
        {
          "pitch": 56,
          "start_beat": 102.5,
          "duration": 0.25,
          "velocity": 50
        },
        {
          "pitch": 58,
          "start_beat": 110.0,
          "duration": 0.25,
          "velocity": 45
        },
        {
          "pitch": 60,
          "start_beat": 118.5,
          "duration": 0.25,
          "velocity": 40
        }
      ]
    },
    {
      "track_index": 5,
      "track_name": "Bass",
      "notes": [
        {
          "pitch": 33,
          "start_beat": 0.0,
          "duration": 16.0,
          "velocity": 70
        },
        {
          "pitch": 29,
          "start_beat": 16.0,
          "duration": 16.0,
          "velocity": 72
        },
        {
          "pitch": 36,
          "start_beat": 32.0,
          "duration": 16.0,
          "velocity": 72
        },
        {
          "pitch": 31,
          "start_beat": 48.0,
          "duration": 16.0,
          "velocity": 70
        },
        {
          "pitch": 33,
          "start_beat": 64.0,
          "duration": 16.0,
          "velocity": 75
        },
        {
          "pitch": 29,
          "start_beat": 80.0,
          "duration": 16.0,
          "velocity": 78
        },
        {
          "pitch": 36,
          "start_beat": 96.0,
          "duration": 16.0,
          "velocity": 75
        },
        {
          "pitch": 31,
          "start_beat": 112.0,
          "duration": 16.0,
          "velocity": 65
        }
      ]
    },
    {
      "track_index": 6,
      "track_name": "Chord/Rhodes",
      "notes": [
        {
          "pitch": 69,
          "start_beat": 0.0,
          "duration": 8.0,
          "velocity": 60
        },
        {
          "pitch": 72,
          "start_beat": 0.0,
          "duration": 8.0,
          "velocity": 58
        },
        {
          "pitch": 76,
          "start_beat": 0.0,
          "duration": 8.0,
          "velocity": 55
        },
        {
          "pitch": 79,
          "start_beat": 0.0,
          "duration": 8.0,
          "velocity": 50
        },
        {
          "pitch": 69,
          "start_beat": 8.0,
          "duration": 8.0,
          "velocity": 62
        },
        {
          "pitch": 72,
          "start_beat": 8.0,
          "duration": 8.0,
          "velocity": 60
        },
        {
          "pitch": 76,
          "start_beat": 8.0,
          "duration": 8.0,
          "velocity": 57
        },
        {
          "pitch": 65,
          "start_beat": 16.0,
          "duration": 16.0,
          "velocity": 64
        },
        {
          "pitch": 69,
          "start_beat": 16.0,
          "duration": 16.0,
          "velocity": 62
        },
        {
          "pitch": 72,
          "start_beat": 16.0,
          "duration": 16.0,
          "velocity": 60
        },
        {
          "pitch": 76,
          "start_beat": 16.0,
          "duration": 16.0,
          "velocity": 55
        },
        {
          "pitch": 64,
          "start_beat": 32.0,
          "duration": 16.0,
          "velocity": 66
        },
        {
          "pitch": 67,
          "start_beat": 32.0,
          "duration": 16.0,
          "velocity": 64
        },
        {
          "pitch": 71,
          "start_beat": 32.0,
          "duration": 16.0,
          "velocity": 62
        },
        {
          "pitch": 74,
          "start_beat": 32.0,
          "duration": 16.0,
          "velocity": 58
        },
        {
          "pitch": 67,
          "start_beat": 48.0,
          "duration": 16.0,
          "velocity": 68
        },
        {
          "pitch": 71,
          "start_beat": 48.0,
          "duration": 16.0,
          "velocity": 65
        },
        {
          "pitch": 74,
          "start_beat": 48.0,
          "duration": 16.0,
          "velocity": 62
        },
        {
          "pitch": 78,
          "start_beat": 48.0,
          "duration": 16.0,
          "velocity": 58
        },
        {
          "pitch": 69,
          "start_beat": 64.0,
          "duration": 16.0,
          "velocity": 72
        },
        {
          "pitch": 72,
          "start_beat": 64.0,
          "duration": 16.0,
          "velocity": 70
        },
        {
          "pitch": 76,
          "start_beat": 64.0,
          "duration": 16.0,
          "velocity": 66
        },
        {
          "pitch": 79,
          "start_beat": 64.0,
          "duration": 16.0,
          "velocity": 62
        },
        {
          "pitch": 65,
          "start_beat": 80.0,
          "duration": 16.0,
          "velocity": 74
        },
        {
          "pitch": 69,
          "start_beat": 80.0,
          "duration": 16.0,
          "velocity": 72
        },
        {
          "pitch": 72,
          "start_beat": 80.0,
          "duration": 16.0,
          "velocity": 68
        },
        {
          "pitch": 76,
          "start_beat": 80.0,
          "duration": 16.0,
          "velocity": 64
        },
        {
          "pitch": 64,
          "start_beat": 96.0,
          "duration": 16.0,
          "velocity": 70
        },
        {
          "pitch": 67,
          "start_beat": 96.0,
          "duration": 16.0,
          "velocity": 68
        },
        {
          "pitch": 71,
          "start_beat": 96.0,
          "duration": 16.0,
          "velocity": 64
        },
        {
          "pitch": 74,
          "start_beat": 96.0,
          "duration": 16.0,
          "velocity": 60
        },
        {
          "pitch": 67,
          "start_beat": 112.0,
          "duration": 16.0,
          "velocity": 60
        },
        {
          "pitch": 71,
          "start_beat": 112.0,
          "duration": 16.0,
          "velocity": 56
        },
        {
          "pitch": 74,
          "start_beat": 112.0,
          "duration": 16.0,
          "velocity": 52
        },
        {
          "pitch": 78,
          "start_beat": 112.0,
          "duration": 16.0,
          "velocity": 48
        }
      ]
    },
    {
      "track_index": 7,
      "track_name": "Lead",
      "notes": [
        {
          "pitch": 76,
          "start_beat": 4.0,
          "duration": 6.0,
          "velocity": 55
        },
        {
          "pitch": 79,
          "start_beat": 12.0,
          "duration": 4.0,
          "velocity": 58
        },
        {
          "pitch": 72,
          "start_beat": 20.0,
          "duration": 6.0,
          "velocity": 60
        },
        {
          "pitch": 77,
          "start_beat": 28.0,
          "duration": 4.0,
          "velocity": 62
        },
        {
          "pitch": 79,
          "start_beat": 36.0,
          "duration": 6.0,
          "velocity": 64
        },
        {
          "pitch": 74,
          "start_beat": 44.0,
          "duration": 4.0,
          "velocity": 66
        },
        {
          "pitch": 76,
          "start_beat": 52.0,
          "duration": 6.0,
          "velocity": 68
        },
        {
          "pitch": 71,
          "start_beat": 60.0,
          "duration": 4.0,
          "velocity": 65
        },
        {
          "pitch": 81,
          "start_beat": 68.0,
          "duration": 8.0,
          "velocity": 72
        },
        {
          "pitch": 79,
          "start_beat": 76.0,
          "duration": 4.0,
          "velocity": 70
        },
        {
          "pitch": 77,
          "start_beat": 84.0,
          "duration": 8.0,
          "velocity": 74
        },
        {
          "pitch": 76,
          "start_beat": 92.0,
          "duration": 4.0,
          "velocity": 68
        },
        {
          "pitch": 74,
          "start_beat": 100.0,
          "duration": 8.0,
          "velocity": 64
        },
        {
          "pitch": 72,
          "start_beat": 110.0,
          "duration": 8.0,
          "velocity": 55
        },
        {
          "pitch": 71,
          "start_beat": 120.0,
          "duration": 8.0,
          "velocity": 45
        }
      ]
    },
    {
      "track_index": 8,
      "track_name": "Pad/Texture",
      "notes": [
        {
          "pitch": 57,
          "start_beat": 0.0,
          "duration": 16.0,
          "velocity": 50
        },
        {
          "pitch": 64,
          "start_beat": 0.0,
          "duration": 16.0,
          "velocity": 48
        },
        {
          "pitch": 67,
          "start_beat": 0.0,
          "duration": 16.0,
          "velocity": 45
        },
        {
          "pitch": 55,
          "start_beat": 16.0,
          "duration": 16.0,
          "velocity": 52
        },
        {
          "pitch": 60,
          "start_beat": 16.0,
          "duration": 16.0,
          "velocity": 50
        },
        {
          "pitch": 64,
          "start_beat": 16.0,
          "duration": 16.0,
          "velocity": 47
        },
        {
          "pitch": 60,
          "start_beat": 32.0,
          "duration": 16.0,
          "velocity": 55
        },
        {
          "pitch": 64,
          "start_beat": 32.0,
          "duration": 16.0,
          "velocity": 52
        },
        {
          "pitch": 67,
          "start_beat": 32.0,
          "duration": 16.0,
          "velocity": 48
        },
        {
          "pitch": 59,
          "start_beat": 48.0,
          "duration": 16.0,
          "velocity": 58
        },
        {
          "pitch": 62,
          "start_beat": 48.0,
          "duration": 16.0,
          "velocity": 55
        },
        {
          "pitch": 67,
          "start_beat": 48.0,
          "duration": 16.0,
          "velocity": 50
        },
        {
          "pitch": 57,
          "start_beat": 64.0,
          "duration": 16.0,
          "velocity": 62
        },
        {
          "pitch": 64,
          "start_beat": 64.0,
          "duration": 16.0,
          "velocity": 60
        },
        {
          "pitch": 67,
          "start_beat": 64.0,
          "duration": 16.0,
          "velocity": 56
        },
        {
          "pitch": 55,
          "start_beat": 80.0,
          "duration": 16.0,
          "velocity": 65
        },
        {
          "pitch": 60,
          "start_beat": 80.0,
          "duration": 16.0,
          "velocity": 62
        },
        {
          "pitch": 64,
          "start_beat": 80.0,
          "duration": 16.0,
          "velocity": 58
        },
        {
          "pitch": 60,
          "start_beat": 96.0,
          "duration": 16.0,
          "velocity": 60
        },
        {
          "pitch": 64,
          "start_beat": 96.0,
          "duration": 16.0,
          "velocity": 56
        },
        {
          "pitch": 67,
          "start_beat": 96.0,
          "duration": 16.0,
          "velocity": 52
        },
        {
          "pitch": 59,
          "start_beat": 112.0,
          "duration": 16.0,
          "velocity": 50
        },
        {
          "pitch": 62,
          "start_beat": 112.0,
          "duration": 16.0,
          "velocity": 45
        },
        {
          "pitch": 67,
          "start_beat": 112.0,
          "duration": 16.0,
          "velocity": 40
        }
      ]
    },
    {
      "track_index": 9,
      "track_name": "FX/Riser",
      "notes": [
        {
          "pitch": 84,
          "start_beat": 14.0,
          "duration": 2.0,
          "velocity": 50
        },
        {
          "pitch": 86,
          "start_beat": 30.0,
          "duration": 2.0,
          "velocity": 55
        },
        {
          "pitch": 88,
          "start_beat": 46.0,
          "duration": 2.0,
          "velocity": 60
        },
        {
          "pitch": 90,
          "start_beat": 62.0,
          "duration": 2.0,
          "velocity": 70
        },
        {
          "pitch": 84,
          "start_beat": 78.0,
          "duration": 2.0,
          "velocity": 65
        },
        {
          "pitch": 86,
          "start_beat": 94.0,
          "duration": 2.0,
          "velocity": 55
        },
        {
          "pitch": 72,
          "start_beat": 108.0,
          "duration": 4.0,
          "velocity": 45
        },
        {
          "pitch": 67,
          "start_beat": 120.0,
          "duration": 8.0,
          "velocity": 35
        }
      ]
    }
  ]
}